<svg xmlns="http://www.w3.org/2000/svg" xmlns:xlink="http://www.w3.org/1999/xlink" version="1.1" enable-background="new 0 0 129 129" width="129" height="129"><rect id="backgroundrect" width="100%" height="100%" x="0" y="0" fill="none" stroke="none"/>
  
<g class="currentLayer" style=""><title>Layer 1</title><g id="svg_1" class="" fill="#ffffff" fill-opacity="1">
    <path d="m121.6,40.1c-3.3-16.6-15.1-27.3-30.3-27.3-8.5,0-17.7,3.5-26.7,10.1-9.1-6.8-18.3-10.3-26.9-10.3-15.2,0-27.1,10.8-30.3,27.6-4.8,24.9 10.6,58 55.7,76 0.5,0.2 1,0.3 1.5,0.3 0.5,0 1-0.1 1.5-0.3 45-18.4 60.3-51.4 55.5-76.1zm-57,67.9c-39.6-16.4-53.3-45-49.2-66.3 2.4-12.7 11.2-21 22.3-21 7.5,0 15.9,3.6 24.3,10.5 1.5,1.2 3.6,1.2 5.1,0 8.4-6.7 16.7-10.2 24.2-10.2 11.1,0 19.8,8.1 22.3,20.7 4.1,21.1-9.5,49.6-49,66.3z" fill="#ffffff" id="svg_2" fill-opacity="1"/>
  </g><path fill="#ffffff" fill-opacity="1" stroke="none" stroke-opacity="1" stroke-width="1" stroke-dasharray="none" stroke-linejoin="miter" stroke-linecap="butt" stroke-dashoffset="" fill-rule="nonzero" opacity="1" marker-start="" marker-mid="" marker-end="" d="M88,54 C88,35.21546961325967 89.79005524861878,20 92,20 C94.20994475138122,20 96,35.21546961325967 96,54 C96,72.78453038674033 94.20994475138122,88 92,88 C89.79005524861878,88 88,72.78453038674033 88,54 Z" id="svg_3"/><path fill="#ffffff" fill-opacity="1" stroke="none" stroke-opacity="1" stroke-width="1" stroke-dasharray="none" stroke-linejoin="miter" stroke-linecap="butt" stroke-dashoffset="" fill-rule="nonzero" opacity="1" marker-start="" marker-mid="" marker-end="" d="M32,64.5 C32,41.01933701657458 48.7817679558011,22 69.5,22 C90.2182320441989,22 107,41.01933701657458 107,64.5 C107,87.98066298342542 90.2182320441989,107 69.5,107 C48.7817679558011,107 32,87.98066298342542 32,64.5 Z" id="svg_6"/><path fill="#ffffff" fill-opacity="1" stroke="none" stroke-opacity="1" stroke-width="1" stroke-dasharray="none" stroke-linejoin="miter" stroke-linecap="butt" stroke-dashoffset="" fill-rule="nonzero" opacity="1" marker-start="" marker-mid="" marker-end="" d="M33,74.5 C33,59.306629834254146 37.69889502762431,47 43.5,47 C49.30110497237569,47 54,59.306629834254146 54,74.5 C54,89.69337016574586 49.30110497237569,102 43.5,102 C37.69889502762431,102 33,89.69337016574586 33,74.5 Z" id="svg_8"/><path fill="#ffffff" fill-opacity="1" stroke="none" stroke-opacity="1" stroke-width="1" stroke-dasharray="none" stroke-linejoin="miter" stroke-linecap="butt" stroke-dashoffset="" fill-rule="nonzero" opacity="1" marker-start="" marker-mid="" marker-end="" d="M13,67 C13,55.39779005524862 21.950276243093924,46 33,46 C44.049723756906076,46 53,55.39779005524862 53,67 C53,78.60220994475138 44.049723756906076,88 33,88 C21.950276243093924,88 13,78.60220994475138 13,67 Z" id="svg_10"/><path fill="#ffffff" fill-opacity="1" stroke="none" stroke-opacity="1" stroke-width="1" stroke-dasharray="none" stroke-linejoin="miter" stroke-linecap="butt" stroke-dashoffset="" fill-rule="nonzero" opacity="1" marker-start="" marker-mid="" marker-end="" d="M51,44 C51,40.68508287292818 54.58011049723757,38 59,38 C63.41988950276243,38 67,40.68508287292818 67,44 C67,47.31491712707182 63.41988950276243,50 59,50 C54.58011049723757,50 51,47.31491712707182 51,44 Z" id="svg_12"/><path fill="#ffffff" fill-opacity="1" stroke="none" stroke-opacity="1" stroke-width="1" stroke-dasharray="none" stroke-linejoin="miter" stroke-linecap="butt" stroke-dashoffset="" fill-rule="nonzero" opacity="1" marker-start="" marker-mid="" marker-end="" d="M14,40.5 C14,30.27900552486188 23.174033149171272,22 34.5,22 C45.82596685082873,22 55,30.27900552486188 55,40.5 C55,50.72099447513812 45.82596685082873,59 34.5,59 C23.174033149171272,59 14,50.72099447513812 14,40.5 Z" id="svg_14"/><path fill="#ffffff" fill-opacity="1" stroke="none" stroke-opacity="1" stroke-width="1" stroke-dasharray="none" stroke-linejoin="miter" stroke-linecap="butt" stroke-dashoffset="" fill-rule="nonzero" opacity="1" marker-start="" marker-mid="" marker-end="" d="M11,52.5 C11,45.5939226519337 13.013812154696133,40 15.5,40 C17.986187845303867,40 20,45.5939226519337 20,52.5 C20,59.4060773480663 17.986187845303867,65 15.5,65 C13.013812154696133,65 11,59.4060773480663 11,52.5 Z" id="svg_16"/><path fill="#ffffff" fill-opacity="1" stroke="none" stroke-opacity="1" stroke-width="1" stroke-dasharray="none" stroke-linejoin="miter" stroke-linecap="butt" stroke-dashoffset="" fill-rule="nonzero" opacity="1" marker-start="" marker-mid="" marker-end="" d="M26,26 C26,21.58011049723757 35.39779005524862,18 47,18 C58.60220994475138,18 68,21.58011049723757 68,26 C68,30.41988950276243 58.60220994475138,34 47,34 C35.39779005524862,34 26,30.41988950276243 26,26 Z" id="svg_18"/><path fill="#ffffff" fill-opacity="1" stroke="none" stroke-opacity="1" stroke-width="1" stroke-dasharray="none" stroke-linejoin="miter" stroke-linecap="butt" stroke-dashoffset="" fill-rule="nonzero" opacity="1" marker-start="" marker-mid="" marker-end="" d="M90,58.5 C90,46.62154696132597 95.81767955801105,37 103,37 C110.18232044198895,37 116,46.62154696132597 116,58.5 C116,70.37845303867404 110.18232044198895,80 103,80 C95.81767955801105,80 90,70.37845303867404 90,58.5 Z" id="svg_20"/><path fill="#ffffff" fill-opacity="1" stroke="none" stroke-opacity="1" stroke-width="1" stroke-dasharray="none" stroke-linejoin="miter" stroke-linecap="butt" stroke-dashoffset="" fill-rule="nonzero" opacity="1" marker-start="" marker-mid="" marker-end="" d="M92,45.5 C92,38.5939226519337 96.92265193370166,33 103,33 C109.07734806629834,33 114,38.5939226519337 114,45.5 C114,52.4060773480663 109.07734806629834,58 103,58 C96.92265193370166,58 92,52.4060773480663 92,45.5 Z" id="svg_22"/><path fill="#ffffff" fill-opacity="1" stroke="none" stroke-opacity="1" stroke-width="1" stroke-dasharray="none" stroke-linejoin="miter" stroke-linecap="butt" stroke-dashoffset="" fill-rule="nonzero" opacity="1" marker-start="" marker-mid="" marker-end="" d="M104,40 C104,35.58011049723757 106.23756906077348,32 109,32 C111.76243093922652,32 114,35.58011049723757 114,40 C114,44.41988950276243 111.76243093922652,48 109,48 C106.23756906077348,48 104,44.41988950276243 104,40 Z" id="svg_24"/><path fill="#ffffff" fill-opacity="1" stroke="none" stroke-opacity="1" stroke-width="1" stroke-dasharray="none" stroke-linejoin="miter" stroke-linecap="butt" stroke-dashoffset="" fill-rule="nonzero" opacity="1" marker-start="" marker-mid="" marker-end="" d="M97,48 C97,43.027624309392266 101.2513812154696,39 106.5,39 C111.7486187845304,39 116,43.027624309392266 116,48 C116,52.972375690607734 111.7486187845304,57 106.5,57 C101.2513812154696,57 97,52.972375690607734 97,48 Z" id="svg_26"/><path fill="#ffffff" fill-opacity="1" stroke="none" stroke-opacity="1" stroke-width="1" stroke-dasharray="none" stroke-linejoin="miter" stroke-linecap="butt" stroke-dashoffset="" fill-rule="nonzero" opacity="1" marker-start="" marker-mid="" marker-end="" d="M68,33.5 C68,26.593922651933703 76.72651933701657,21 87.5,21 C98.27348066298343,21 107,26.593922651933703 107,33.5 C107,40.4060773480663 98.27348066298343,46 87.5,46 C76.72651933701657,46 68,40.4060773480663 68,33.5 Z" id="svg_28"/><path fill="#ffffff" fill-opacity="1" stroke="none" stroke-opacity="1" stroke-width="1" stroke-dasharray="none" stroke-linejoin="miter" stroke-linecap="butt" stroke-dashoffset="" fill-rule="nonzero" opacity="1" marker-start="" marker-mid="" marker-end="" d="M79,24 C79,20.685082872928177 85.26519337016575,18 93,18 C100.73480662983425,18 107,20.685082872928177 107,24 C107,27.314917127071823 100.73480662983425,30 93,30 C85.26519337016575,30 79,27.314917127071823 79,24 Z" id="svg_30"/></g></svg>