<svg xmlns="http://www.w3.org/2000/svg" xmlns:xlink="http://www.w3.org/1999/xlink" version="1.1" enable-background="new 0 0 129 129" width="129" height="129"><rect id="backgroundrect" width="100%" height="100%" x="0" y="0" fill="none" stroke="none"/>
  
<g class="currentLayer" style=""><title>Layer 1</title><g id="svg_1" class="" fill="#eb1a1a" fill-opacity="1">
    <path d="m121.6,40.1c-3.3-16.6-15.1-27.3-30.3-27.3-8.5,0-17.7,3.5-26.7,10.1-9.1-6.8-18.3-10.3-26.9-10.3-15.2,0-27.1,10.8-30.3,27.6-4.8,24.9 10.6,58 55.7,76 0.5,0.2 1,0.3 1.5,0.3 0.5,0 1-0.1 1.5-0.3 45-18.4 60.3-51.4 55.5-76.1zm-57,67.9c-39.6-16.4-53.3-45-49.2-66.3 2.4-12.7 11.2-21 22.3-21 7.5,0 15.9,3.6 24.3,10.5 1.5,1.2 3.6,1.2 5.1,0 8.4-6.7 16.7-10.2 24.2-10.2 11.1,0 19.8,8.1 22.3,20.7 4.1,21.1-9.5,49.6-49,66.3z" fill="#eb1a1a" id="svg_2" fill-opacity="1"/>
  </g><path fill="#eb1a1a" fill-opacity="1" stroke="none" stroke-opacity="1" stroke-width="1" stroke-dasharray="none" stroke-linejoin="miter" stroke-linecap="butt" stroke-dashoffset="" fill-rule="nonzero" opacity="1" marker-start="" marker-mid="" marker-end="" d="M18,65 C18,42.348066298342545 37.914364640883974,24 62.5,24 C87.08563535911603,24 107,42.348066298342545 107,65 C107,87.65193370165746 87.08563535911603,106 62.5,106 C37.914364640883974,106 18,87.65193370165746 18,65 Z" id="svg_3"/><path fill="#eb1a1a" fill-opacity="1" stroke="none" stroke-opacity="1" stroke-width="1" stroke-dasharray="none" stroke-linejoin="miter" stroke-linecap="butt" stroke-dashoffset="" fill-rule="nonzero" opacity="1" marker-start="" marker-mid="" marker-end="" d="M53,40.5 C53,28.62154696132597 63.96408839779006,19 77.5,19 C91.03591160220995,19 102,28.62154696132597 102,40.5 C102,52.37845303867403 91.03591160220995,62 77.5,62 C63.96408839779006,62 53,52.37845303867403 53,40.5 Z" id="svg_5"/><path fill="#eb1a1a" fill-opacity="1" stroke="none" stroke-opacity="1" stroke-width="1" stroke-dasharray="none" stroke-linejoin="miter" stroke-linecap="butt" stroke-dashoffset="" fill-rule="nonzero" opacity="1" marker-start="" marker-mid="" marker-end="" d="M91,52 C91,35.97790055248619 96.37016574585635,23 103,23 C109.62983425414365,23 115,35.97790055248619 115,52 C115,68.02209944751381 109.62983425414365,81 103,81 C96.37016574585635,81 91,68.02209944751381 91,52 Z" id="svg_7"/><path fill="#eb1a1a" fill-opacity="1" stroke="none" stroke-opacity="1" stroke-width="1" stroke-dasharray="none" stroke-linejoin="miter" stroke-linecap="butt" stroke-dashoffset="" fill-rule="nonzero" opacity="1" marker-start="" marker-mid="" marker-end="" d="M83,23.5 C83,21.013812154696133 87.92265193370166,19 94,19 C100.07734806629834,19 105,21.013812154696133 105,23.5 C105,25.986187845303867 100.07734806629834,28 94,28 C87.92265193370166,28 83,25.986187845303867 83,23.5 Z" id="svg_9"/><path fill="#eb1a1a" fill-opacity="1" stroke="none" stroke-opacity="1" stroke-width="1" stroke-dasharray="none" stroke-linejoin="miter" stroke-linecap="butt" stroke-dashoffset="" fill-rule="nonzero" opacity="1" marker-start="" marker-mid="" marker-end="" d="M69,98 C69,92.47513812154696 69.22375690607734,88 69.5,88 C69.77624309392266,88 70,92.47513812154696 70,98 C70,103.52486187845304 69.77624309392266,108 69.5,108 C69.22375690607734,108 69,103.52486187845304 69,98 Z" id="svg_11"/><path fill="#eb1a1a" fill-opacity="1" stroke="none" stroke-opacity="1" stroke-width="1" stroke-dasharray="none" stroke-linejoin="miter" stroke-linecap="butt" stroke-dashoffset="" fill-rule="nonzero" opacity="1" marker-start="" marker-mid="" marker-end="" d="M54,100 C54,93.92265193370166 59.370165745856355,89 66,89 C72.62983425414365,89 78,93.92265193370166 78,100 C78,106.07734806629834 72.62983425414365,111 66,111 C59.370165745856355,111 54,106.07734806629834 54,100 Z" id="svg_13"/><path fill="#eb1a1a" fill-opacity="1" stroke="none" stroke-opacity="1" stroke-width="1" stroke-dasharray="none" stroke-linejoin="miter" stroke-linecap="butt" stroke-dashoffset="" fill-rule="nonzero" opacity="1" marker-start="" marker-mid="" marker-end="" d="M12,52 C12,34.32044198895028 21.845303867403317,20 34,20 C46.15469613259668,20 56,34.32044198895028 56,52 C56,69.67955801104972 46.15469613259668,84 34,84 C21.845303867403317,84 12,69.67955801104972 12,52 Z" id="svg_15"/><path fill="#eb1a1a" fill-opacity="1" stroke="none" stroke-opacity="1" stroke-width="1" stroke-dasharray="none" stroke-linejoin="miter" stroke-linecap="butt" stroke-dashoffset="" fill-rule="nonzero" opacity="1" marker-start="" marker-mid="" marker-end="" d="M32,28.5 C32,23.251381215469614 38.0414364640884,19 45.5,19 C52.9585635359116,19 59,23.251381215469614 59,28.5 C59,33.748618784530386 52.9585635359116,38 45.5,38 C38.0414364640884,38 32,33.748618784530386 32,28.5 Z" id="svg_17"/></g></svg>