<svg width="866" height="630" viewBox="0 0 866 630" fill="none" xmlns="http://www.w3.org/2000/svg">
<path d="M712.94 362.64C713.001 363.906 713.467 365.119 714.27 366.1C715.759 367.912 717.561 369.443 719.59 370.62V376.04C719.59 376.04 735.59 389.41 738.88 394.46C742.05 399.28 745.29 404.19 749.8 407.78C750.967 408.812 752.362 409.552 753.87 409.94H754.14C753.7 410.385 753.167 410.726 752.58 410.94C752.648 411.437 752.817 411.916 753.077 412.346C753.336 412.776 753.68 413.149 754.088 413.441C754.496 413.734 754.959 413.941 755.449 414.049C755.94 414.157 756.447 414.164 756.94 414.07C757.715 413.833 758.445 413.468 759.1 412.99L765.44 408.89C766.496 408.255 767.484 407.515 768.39 406.68C769.57 405.49 770.39 404 771.55 402.78C773.55 400.7 776.39 399.46 777.78 396.96C778.65 395.4 778.78 393.55 779.34 391.84C779.69 390.72 780.2 389.66 780.54 388.54C780.737 387.867 780.874 387.177 780.95 386.48C781.17 386.67 781.4 386.86 781.64 387.04C782.13 386.72 783.07 387.56 782.85 388.1C782.63 388.64 782.1 389.03 781.92 389.59C781.52 390.87 783.1 391.82 783.76 392.99C784.42 394.16 784.08 395.66 784.15 396.99C784.22 398.32 784.83 399.92 785.02 401.41C785.48 404.89 783.76 408.56 785.02 411.85C784.271 411.839 783.541 412.084 782.95 412.544C782.359 413.004 781.943 413.651 781.77 414.38C781.463 415.853 781.508 417.377 781.9 418.83C780.937 419.399 780.148 420.22 779.619 421.206C779.09 422.191 778.841 423.303 778.9 424.42C778.982 424.759 778.932 425.117 778.76 425.42C778.598 425.573 778.403 425.686 778.19 425.75C777.155 426.179 776.271 426.907 775.652 427.84C775.032 428.773 774.704 429.87 774.71 430.99C774.757 431.363 774.723 431.742 774.61 432.1C774.403 432.438 774.123 432.725 773.79 432.94C773.028 433.553 772.415 434.33 771.994 435.213C771.573 436.096 771.357 437.062 771.36 438.04C771.322 438.7 771.462 439.357 771.765 439.945C772.067 440.532 772.521 441.028 773.08 441.38H773.15C769.814 444.307 767.677 448.363 767.15 452.77C766.91 456.717 767.172 460.679 767.93 464.56H768.29C768.29 464.67 768.29 464.74 768.29 464.73C768.29 464.72 768.29 464.81 768.29 464.85C768.381 465.445 768.574 466.02 768.86 466.55C770.116 469.311 770.845 472.282 771.01 475.31C771.003 476.057 771.104 476.802 771.31 477.52C771.62 478.203 771.999 478.853 772.44 479.46C773.77 481.63 774.08 484.25 774.53 486.76C775.104 490.017 775.957 493.219 777.08 496.33C778.61 500.57 780.67 504.91 779.97 509.33C779.703 510.379 779.569 511.458 779.57 512.54C779.769 513.734 780.197 514.878 780.83 515.91C781.34 516.91 781.83 517.97 782.23 519.03C782.222 519.65 782.442 520.252 782.85 520.72C782.97 521.05 783.07 521.39 783.17 521.72C783.27 522.05 783.34 522.25 783.42 522.52C783.554 522.966 783.657 523.42 783.73 523.88L783.67 524.93V525.93C783.573 526.256 783.409 526.559 783.19 526.82C783.109 526.921 783.022 527.018 782.93 527.11L782.69 527.38C782.583 527.498 782.492 527.629 782.42 527.77C782.273 528.135 782.245 528.538 782.34 528.92C782.34 529.07 782.4 529.22 782.44 529.37C782.69 530.45 782.96 531.53 783.23 532.6C783.31 532.93 783.4 533.25 783.48 533.6C783.7 534.44 783.92 535.29 784.15 536.13V536.24L784.3 536.8L784.87 538.86C784.99 539.27 785.11 539.67 785.22 540.08L785.66 541.57C786 542.73 786.35 543.89 786.71 545.05C790.28 556.83 794.11 568.54 796.47 580.62C796.685 581.477 797.191 582.233 797.9 582.76C798.647 583.347 799.489 583.8 800.39 584.1C800.62 585.87 801.19 588.03 801.26 589.1C801.48 592.59 801.64 596.31 800.37 599.49C800.233 599.464 800.092 599.472 799.96 599.514C799.827 599.556 799.707 599.63 799.61 599.73C798.804 600.498 798.039 601.309 797.32 602.16L792.63 607.16C792.231 607.551 791.876 607.983 791.57 608.45C791.237 608.998 791.025 609.61 790.947 610.247C790.87 610.883 790.928 611.528 791.12 612.14C791.523 613.369 792.387 614.394 793.53 615C793.798 615.115 794.053 615.259 794.29 615.43C794.437 615.574 794.594 615.708 794.76 615.83C795.068 615.987 795.415 616.053 795.76 616.02C798.425 615.869 801.065 615.419 803.63 614.68C804.839 614.496 805.968 613.964 806.88 613.15C807.391 612.512 807.769 611.777 807.99 610.99L808.93 608.39C809.544 606.817 810.022 605.195 810.36 603.54C810.702 601.879 810.616 600.159 810.11 598.54C809.998 598.655 809.916 598.796 809.87 598.95C810.1 597.5 810.32 596.04 810.55 594.58C810.62 594.15 810.68 593.71 810.74 593.26C811.04 597.15 810.47 601.07 810.65 604.97C810.461 605.688 810.33 606.421 810.26 607.16C810.52 610.74 812.01 614.65 814.9 616.78C815.372 617.155 815.912 617.437 816.49 617.61C817.034 617.69 817.586 617.69 818.13 617.61C820.258 617.537 822.362 617.139 824.37 616.43C825.373 616.071 826.291 615.506 827.064 614.773C827.837 614.04 828.449 613.153 828.86 612.17C829.17 611.173 829.322 610.134 829.31 609.09C829.364 607.999 829.266 606.905 829.02 605.84C828.58 604.533 828.031 603.266 827.38 602.05C826.61 600.244 825.987 598.377 825.52 596.47L824.65 593.3C824.41 592.4 824.16 591.5 823.85 590.62C823.677 589.829 823.293 589.1 822.74 588.51C822.38 588.23 822.14 588.21 821.98 588.37C821.98 588.25 821.98 588.14 821.98 588.03C822.121 586.798 822.197 585.56 822.21 584.32C821.97 582.32 820.38 580.69 819.35 578.91C818.832 578.018 818.448 577.054 818.21 576.05C818.15 575.83 818.11 575.62 818.07 575.39C818.241 575.24 818.433 575.115 818.64 575.02L820.42 576.02C818.85 564.22 819.68 551.85 815.1 540.87C813.1 536.09 809.25 531.11 809.68 525.96C809.188 525.533 808.801 524.998 808.552 524.396C808.302 523.794 808.196 523.143 808.241 522.493C808.287 521.843 808.483 521.212 808.814 520.651C809.146 520.09 809.603 519.614 810.15 519.26C810.92 518.84 811.87 518.64 812.4 517.93C812.651 517.537 812.824 517.099 812.91 516.64C815.442 506.519 818.745 496.607 822.79 486.99C823.68 484.88 824.6 482.79 825.53 480.7L828.63 473.65L832.41 465.07C833.69 462.18 834.98 458.88 833.77 455.97C833.29 454.82 832.44 453.73 832.56 452.5C832.764 451.724 833.011 450.959 833.3 450.21C833.421 449.376 833.357 448.526 833.11 447.72C832.86 446.64 832.58 445.56 832.29 444.49C833.103 444.588 833.908 444.742 834.7 444.95C835.18 444.14 834.41 443.2 833.94 442.38C833.399 441.266 833.102 440.048 833.07 438.81L832.07 428.72C831.879 427.328 831.852 425.918 831.99 424.52C832.19 423.04 832.76 421.63 833.05 420.15C833.6 417.32 833.05 414.4 833.23 411.51C833.421 408.966 833.863 406.447 834.55 403.99C834.64 403.62 834.72 403.26 834.81 402.89C835.281 403.033 835.768 403.116 836.26 403.14H836.75H836.9H837.3H837.5C837.686 403.106 837.87 403.06 838.05 403H838.17C838.371 402.934 838.567 402.857 838.76 402.77C838.52 402.26 838.3 401.77 838.09 401.23C838 401.02 837.92 400.81 837.84 400.6C837.76 400.39 837.61 400.01 837.51 399.71C837.41 399.41 837.31 399.16 837.22 398.89C837.13 398.62 837.07 398.43 837 398.2C836.93 397.97 836.81 397.57 836.72 397.2C836.63 396.83 836.54 396.54 836.45 396.2L836.6 395.89C837.105 396.328 837.659 396.707 838.25 397.02C840.25 400.47 842.06 404.02 843.73 407.6C843.988 407.21 844.162 406.771 844.24 406.31C844.448 406.635 844.685 406.939 844.95 407.22C845.645 407.894 846.429 408.469 847.28 408.93C848.103 409.487 849.051 409.83 850.04 409.93C851.37 409.895 852.635 409.347 853.57 408.4C856.48 405.85 857.93 402.06 859.28 398.4C861.211 393.649 862.652 388.714 863.58 383.67C864.4 378.24 864.05 372.6 865.58 367.33C864.19 364.57 863.31 361.52 861.75 358.85C860.749 357.267 859.867 355.613 859.11 353.9C857.643 350.254 857.477 346.214 858.64 342.46C858.363 342.283 858.037 342.197 857.709 342.215C857.381 342.233 857.066 342.354 856.81 342.56C856.312 342.99 855.933 343.541 855.71 344.16C854.807 346.278 854.433 348.585 854.62 350.88C854.731 351.433 854.664 352.007 854.43 352.52C854.217 352.781 853.944 352.986 853.633 353.117C853.323 353.247 852.985 353.3 852.65 353.27C851.249 353.21 849.863 352.957 848.53 352.52C844.782 351.569 840.911 351.191 837.05 351.4C836.743 351.041 836.409 350.707 836.05 350.4L835.62 350.05L835.18 349.71L834.96 349.53C834.813 349.415 834.673 349.291 834.54 349.16C833.999 348.723 833.642 348.098 833.54 347.41C833.535 347.323 833.535 347.237 833.54 347.15C833.535 347.07 833.535 346.99 833.54 346.91C833.591 346.669 833.668 346.434 833.77 346.21C833.835 346.056 833.909 345.906 833.99 345.76L834.1 345.53C834.1 345.46 834.17 345.38 834.21 345.31C834.336 345.038 834.443 344.757 834.53 344.47C834.621 344.185 834.691 343.895 834.74 343.6C834.79 343.306 834.82 343.008 834.83 342.71C834.83 342.41 834.83 342.11 834.83 341.81C834.83 341.51 834.83 341.51 834.83 341.36C834.766 340.756 834.642 340.159 834.46 339.58C834.33 339.143 834.169 338.715 833.98 338.3C833.73 337.756 833.446 337.228 833.13 336.72C832.49 335.698 831.775 334.725 830.99 333.81L830.4 333.12L829.8 332.44C829.179 331.764 828.598 331.053 828.06 330.31C827.654 329.76 827.319 329.162 827.06 328.53C826.98 328.32 826.91 328.11 826.85 327.89C826.75 327.483 826.69 327.068 826.67 326.65C826.67 326.52 826.67 326.38 826.67 326.24C826.666 325.682 826.693 325.125 826.75 324.57C826.83 323.79 826.94 323 827.05 322.2C827.12 321.67 827.2 321.14 827.27 320.61C827.27 320.35 827.33 320.08 827.37 319.82C827.43 319.29 827.49 318.76 827.53 318.23C827.68 316.682 827.592 315.121 827.27 313.6C827.157 313.094 827 312.598 826.8 312.12C826.534 311.485 826.198 310.882 825.8 310.32C824.381 308.392 822.457 306.894 820.24 305.99C818.605 305.271 816.899 304.724 815.15 304.36C814.45 304.21 813.76 304.08 813.07 303.97C802.67 302.3 791.63 305.46 785.07 313.97C781.65 318.39 778.74 323.35 777.5 328.8C776.26 334.25 776.82 340.29 779.89 344.97C781.18 346.97 782.89 348.65 784.02 350.71C784.96 352.39 785.52 354.28 786.53 355.92C787.868 357.999 789.803 359.627 792.08 360.59L791.64 360.99C790.604 360.89 789.561 360.91 788.53 361.05C787.47 361.23 786.44 361.64 785.37 361.77C784.05 361.94 782.7 361.68 781.37 361.85C778.91 362.17 776.89 363.85 775.02 365.5C772.83 367.41 770.48 369.64 770.31 372.5V372.58L768.84 374.58C768.481 375.028 768.173 375.515 767.92 376.03C767.33 377.42 767.66 379.03 767.34 380.51C767.092 381.454 766.7 382.354 766.18 383.18C764.702 385.788 763.03 388.282 761.18 390.64C760.33 391.84 759.278 392.882 758.07 393.72C757.11 394.352 755.979 394.673 754.83 394.64C753.112 393.806 751.517 392.74 750.09 391.47C748.507 389.892 747.102 388.145 745.9 386.26C743.52 382.83 750.9 393.09 748.52 389.65L727.18 354.09C726.751 352.431 726.47 350.738 726.34 349.03C726.34 348.38 726.07 347.52 725.41 347.5C725.123 347.52 724.855 347.649 724.66 347.86C724.152 348.323 723.761 348.899 723.519 349.543C723.278 350.186 723.192 350.877 723.27 351.56C722.146 351.385 720.996 351.589 720 352.14C719.795 352.285 719.621 352.47 719.489 352.683C719.356 352.897 719.268 353.135 719.23 353.383C719.192 353.631 719.204 353.885 719.266 354.128C719.328 354.372 719.438 354.6 719.59 354.8V355.07C719.322 355.208 719.105 355.428 718.97 355.697C718.835 355.967 718.79 356.273 718.84 356.57C717.687 356.207 716.442 356.268 715.33 356.74C714.28 357.33 713.88 359.06 714.9 359.74C714.317 359.966 713.816 360.365 713.466 360.883C713.116 361.402 712.932 362.015 712.94 362.64ZM846.62 367.74C847.233 367.936 847.858 368.097 848.49 368.22C850.487 368.686 852.43 369.356 854.29 370.22C854.896 370.435 855.422 370.829 855.8 371.35C855.98 371.808 856.057 372.299 856.025 372.79C855.994 373.281 855.856 373.759 855.62 374.19L852.98 381.32C852.56 382.44 852.15 383.56 851.63 384.63C851.43 385.06 851.2 385.49 850.97 385.91C850.89 385.67 850.81 385.44 850.73 385.22C849.966 383.046 849.332 380.829 848.83 378.58C848.39 376.64 848.02 374.68 847.71 372.72C847.489 371.03 847.117 369.364 846.6 367.74H846.62ZM843.86 362.15L844.06 362.29C844.318 362.405 844.552 362.568 844.75 362.77C844.831 362.924 844.874 363.096 844.874 363.27C844.874 363.444 844.831 363.616 844.75 363.77L843.86 362.15ZM839.09 355.28L842.25 355.74C843.014 355.782 843.751 356.035 844.38 356.47C844.683 356.697 844.884 357.035 844.939 357.41C844.993 357.785 844.896 358.166 844.67 358.47C844.451 358.647 844.217 358.804 843.97 358.94C843.656 359.174 843.418 359.495 843.284 359.863C843.151 360.23 843.129 360.629 843.22 361.01C842.687 360.03 842.082 359.09 841.41 358.2C840.787 357.406 840.08 356.681 839.3 356.04C839.23 355.79 839.17 355.53 839.09 355.28ZM808.72 582.61C809.11 582.63 809.5 582.63 809.89 582.61C809.706 583.545 809.643 584.499 809.7 585.45L808.72 582.61Z" fill="url(#paint0_linear)"/>
<path d="M812.92 306.11C818.41 306.99 824.51 309.11 826.61 314.25C828.19 318.14 826.97 322.51 826.61 326.69C826.455 327.792 826.495 328.912 826.73 330C827.326 331.723 828.319 333.282 829.63 334.55C831.306 336.281 832.715 338.253 833.81 340.4C834.35 341.48 834.654 342.663 834.703 343.87C834.751 345.077 834.542 346.28 834.09 347.4C833.743 347.963 833.508 348.588 833.4 349.24C833.33 350.67 834.82 351.57 835.92 352.48C840.04 355.89 839.86 362.1 839.92 367.48C839.993 378.42 842.436 389.214 847.08 399.12C845.344 400.001 843.383 400.338 841.452 400.087C839.522 399.835 837.712 399.007 836.26 397.71C836.834 400.148 837.659 402.521 838.72 404.79C835.23 406.48 831.03 403.7 829.29 400.25C827.55 396.8 827.29 392.77 826.09 389.11C824.89 385.45 822.6 382.22 821.6 378.53C821.407 377.283 820.983 376.082 820.35 374.99C819.722 374.252 818.979 373.621 818.15 373.12C814.533 370.507 811.823 366.829 810.4 362.6C806.13 363.6 801.78 364.49 797.4 364.1C793.02 363.71 788.61 361.73 786.32 358.01C785.32 356.37 784.75 354.48 783.81 352.8C782.66 350.74 780.96 349.05 779.67 347.07C776.61 342.39 776.05 336.38 777.29 330.92C778.53 325.46 781.43 320.53 784.86 316.11C791.49 307.6 802.53 304.44 812.92 306.11Z" fill="#3A3768"/>
<path d="M812.92 306.11C818.41 306.99 824.51 309.11 826.61 314.25C828.19 318.14 826.97 322.51 826.61 326.69C826.455 327.792 826.495 328.912 826.73 330C827.326 331.723 828.319 333.282 829.63 334.55C831.306 336.281 832.715 338.253 833.81 340.4C834.35 341.48 834.654 342.663 834.703 343.87C834.751 345.077 834.542 346.28 834.09 347.4C833.743 347.963 833.508 348.588 833.4 349.24C833.33 350.67 834.82 351.57 835.92 352.48C840.04 355.89 839.86 362.1 839.92 367.48C839.993 378.42 842.436 389.214 847.08 399.12C845.344 400.001 843.383 400.338 841.452 400.087C839.522 399.835 837.712 399.007 836.26 397.71C836.834 400.148 837.659 402.521 838.72 404.79C835.23 406.48 831.03 403.7 829.29 400.25C827.55 396.8 827.29 392.77 826.09 389.11C824.89 385.45 822.6 382.22 821.6 378.53C821.407 377.283 820.983 376.082 820.35 374.99C819.722 374.252 818.979 373.621 818.15 373.12C814.533 370.507 811.823 366.829 810.4 362.6C806.13 363.6 801.78 364.49 797.4 364.1C793.02 363.71 788.61 361.73 786.32 358.01C785.32 356.37 784.75 354.48 783.81 352.8C782.66 350.74 780.96 349.05 779.67 347.07C776.61 342.39 776.05 336.38 777.29 330.92C778.53 325.46 781.43 320.53 784.86 316.11C791.49 307.6 802.53 304.44 812.92 306.11Z" fill="#3F3D56"/>
<path d="M847.54 374.68C847.85 376.68 848.22 378.6 848.67 380.55C849.164 382.793 849.795 385.004 850.56 387.17C850.998 388.107 851.2 389.137 851.15 390.17C851.015 390.815 850.768 391.431 850.42 391.99C847.91 396.44 844.53 400.74 844.24 405.84C844.17 407.11 844.24 408.48 843.56 409.53C841.62 405.37 839.483 401.31 837.15 397.35C834.71 393.21 832 389.03 831.3 384.27C831.022 382.037 831.049 379.776 831.38 377.55C831.561 375.024 832.395 372.587 833.8 370.48C835.45 368.32 840 365.05 842.94 365.72C846.39 366.56 847.1 371.89 847.54 374.68Z" fill="#F86D70"/>
<path d="M759.17 398.67C755.89 397.33 752.55 395.92 749.94 393.51C748.355 391.937 746.95 390.193 745.75 388.31L738.04 377.17C736.21 374.52 734.33 371.74 733.94 368.55C729.422 363.785 726.697 357.6 726.23 351.05C726.23 350.39 725.97 349.54 725.31 349.52C725.021 349.541 724.749 349.669 724.55 349.88C724.044 350.344 723.656 350.921 723.416 351.564C723.176 352.207 723.092 352.898 723.17 353.58C722.047 353.402 720.897 353.603 719.9 354.15C718.98 354.81 718.74 356.44 719.73 356.99C719.397 357.086 719.111 357.301 718.927 357.594C718.742 357.888 718.672 358.238 718.73 358.58C717.578 358.21 716.331 358.271 715.22 358.75C714.22 359.34 713.77 361.06 714.79 361.75C714.188 361.962 713.67 362.361 713.31 362.888C712.951 363.415 712.768 364.042 712.79 364.68C712.851 365.943 713.317 367.153 714.12 368.13C717.12 372.13 722.32 373.71 725.75 377.29C726.874 378.526 727.878 379.865 728.75 381.29L738.7 396.43C741.86 401.24 745.11 406.14 749.62 409.72C750.785 410.749 752.176 411.489 753.68 411.88C754.433 412.069 755.222 412.06 755.971 411.853C756.719 411.646 757.401 411.249 757.95 410.7C758.95 409.57 759.1 407.94 759.2 406.44C759.44 403.89 759 401.24 759.17 398.67Z" fill="#A1616A"/>
<path d="M792.48 608.89C792.086 609.285 791.731 609.717 791.42 610.18C791.087 610.728 790.875 611.34 790.797 611.977C790.72 612.613 790.778 613.258 790.97 613.87C791.375 615.095 792.239 616.117 793.38 616.72C793.647 616.843 793.901 616.99 794.14 617.16C794.287 617.304 794.444 617.438 794.61 617.56C794.918 617.717 795.265 617.783 795.61 617.75C798.275 617.593 800.914 617.144 803.48 616.41C804.689 616.226 805.818 615.694 806.73 614.88C807.232 614.24 807.608 613.51 807.84 612.73L808.77 610.13C809.383 608.559 809.864 606.94 810.21 605.29C810.545 603.628 810.456 601.908 809.95 600.29C809.725 600.575 809.602 600.927 809.6 601.29C809.332 603.044 808.646 604.707 807.6 606.14C807.384 606.505 807.122 606.842 806.82 607.14C806.137 607.666 805.332 608.01 804.48 608.14C802.835 608.499 801.162 608.713 799.48 608.78C799.25 608.804 799.018 608.777 798.8 608.7C798.523 608.548 798.318 608.293 798.23 607.99C798.001 607.343 798.001 606.637 798.23 605.99C798.68 604.73 799.92 603.9 800.52 602.69C800.96 601.8 800.35 600.82 799.44 601.57C798.629 602.333 797.864 603.145 797.15 604L792.48 608.89Z" fill="#3F3D56"/>
<path d="M801.1 590.89C801.37 595.08 801.55 599.6 799.26 603.11C798.44 604.38 797.33 605.44 796.39 606.63C795.859 607.225 795.512 607.962 795.39 608.75C795.25 610.28 796.69 611.6 798.21 611.88C799.75 612.043 801.307 611.819 802.74 611.23C804.13 610.885 805.438 610.27 806.59 609.42C808.59 607.73 809.11 604.92 809.51 602.34L810.44 596.34C810.722 594.901 810.836 593.435 810.78 591.97C810.588 590.357 810.195 588.775 809.61 587.26L808.07 582.76C807.967 582.324 807.729 581.932 807.39 581.64C807.03 581.453 806.622 581.38 806.22 581.43C804.75 581.5 801.04 582.04 800.33 583.59C799.68 584.99 801 589.31 801.1 590.89Z" fill="#EE8E9E"/>
<path opacity="0.05" d="M801.1 590.89C801.37 595.08 801.55 599.6 799.26 603.11C798.44 604.38 797.33 605.44 796.39 606.63C795.859 607.225 795.512 607.962 795.39 608.75C795.25 610.28 796.69 611.6 798.21 611.88C799.75 612.043 801.307 611.819 802.74 611.23C804.13 610.885 805.438 610.27 806.59 609.42C808.59 607.73 809.11 604.92 809.51 602.34L810.44 596.34C810.722 594.901 810.836 593.435 810.78 591.97C810.588 590.357 810.195 588.775 809.61 587.26L808.07 582.76C807.967 582.324 807.729 581.932 807.39 581.64C807.03 581.453 806.622 581.38 806.22 581.43C804.75 581.5 801.04 582.04 800.33 583.59C799.68 584.99 801 589.31 801.1 590.89Z" fill="black"/>
<path d="M768.15 466.74C768.145 466.776 768.145 466.814 768.15 466.85C768.233 467.446 768.423 468.022 768.71 468.55C769.963 471.309 770.695 474.275 770.87 477.3C770.855 478.047 770.952 478.792 771.16 479.51C771.474 480.191 771.853 480.841 772.29 481.45C773.62 483.62 773.93 486.23 774.38 488.74C774.954 491.994 775.807 495.192 776.93 498.3C778.46 502.53 780.52 506.87 779.82 511.3C779.554 512.346 779.42 513.421 779.42 514.5C779.612 515.694 780.037 516.839 780.67 517.87C781.19 518.87 781.67 519.93 782.08 520.99C782.49 522.05 782.93 523.3 783.27 524.47C783.68 525.91 783.96 527.61 783.01 528.76C782.715 529.04 782.457 529.356 782.24 529.7C782.06 530.225 782.06 530.795 782.24 531.32C782.78 533.6 783.36 535.877 783.98 538.15C784.46 539.93 784.98 541.7 785.49 543.47C789.35 556.41 793.71 569.22 796.3 582.47C796.67 584.38 799.11 585.75 801.01 586.16C801.962 586.365 802.949 586.34 803.89 586.088C804.831 585.836 805.698 585.363 806.42 584.71C806.556 584.597 806.683 584.473 806.8 584.34C808.8 582.2 809.07 578.92 808.93 575.96C808.26 562.32 801.39 549.84 798.12 536.58C796.94 531.791 796.23 526.897 796 521.97C795.23 505.5 794.93 488.1 799.58 472.29C800.58 469 801.69 465.29 799.95 462.29C798.85 460.43 796.82 459.29 794.81 458.53C790.7 456.922 786.31 456.152 781.898 456.265C777.486 456.378 773.142 457.373 769.12 459.19C769.099 459.523 769.099 459.857 769.12 460.19C769.295 461.723 769.117 463.276 768.6 464.73C768.326 465.366 768.174 466.048 768.15 466.74Z" fill="#3F3D56"/>
<path d="M824.52 595.13L825.39 598.3C825.851 600.208 826.47 602.074 827.24 603.88C827.896 605.091 828.448 606.356 828.89 607.66C829.128 608.726 829.222 609.819 829.17 610.91C829.182 611.951 829.03 612.987 828.72 613.98C828.309 614.963 827.697 615.85 826.924 616.583C826.151 617.316 825.233 617.881 824.23 618.24C822.224 618.94 820.124 619.334 818 619.41C817.457 619.5 816.903 619.5 816.36 619.41C815.78 619.241 815.24 618.959 814.77 618.58C811.88 616.46 810.39 612.58 810.13 608.97C810.206 608.138 810.371 607.317 810.62 606.52C810.84 606.22 813.03 607.45 812.09 608.52C810.71 610.05 814.76 609.26 816.82 609.13C817.723 609.047 818.618 608.9 819.5 608.69L822.83 607.98C823.92 607.74 825.18 607.37 825.56 606.32C825.94 605.27 825.1 604.03 824.45 603.02C822.7 600.33 822.26 597.02 821.85 593.85C821.77 593.22 820.99 589.17 822.6 590.43C823.157 591.02 823.544 591.749 823.72 592.54C824.03 593.34 824.27 594.23 824.52 595.13Z" fill="#3F3D56"/>
<path opacity="0.05" d="M783.02 528.77C784.02 527.62 783.69 525.92 783.28 524.49C783.12 523.95 782.96 523.42 782.78 522.89L795.87 518.47C795.87 519.64 795.97 520.81 796.02 521.98C796.251 526.911 796.961 531.807 798.14 536.6C801.41 549.85 808.28 562.33 808.95 575.96C809.1 579.1 808.77 582.61 806.45 584.73C805.724 585.38 804.854 585.849 803.912 586.099C802.971 586.349 801.983 586.374 801.03 586.17C799.14 585.76 796.69 584.39 796.32 582.48C793.73 569.23 789.32 556.42 785.51 543.48C784.31 539.48 783.227 535.427 782.26 531.32C782.085 530.798 782.085 530.232 782.26 529.71C782.473 529.366 782.729 529.051 783.02 528.77Z" fill="black"/>
<path d="M819.2 580.76C820.2 582.54 821.81 584.12 822.05 586.16C822.048 587.4 821.971 588.639 821.82 589.87C821.871 590.89 822.056 591.898 822.37 592.87C823.637 597.47 825.103 602.01 826.77 606.49C827.043 607.067 827.163 607.704 827.12 608.34C826.963 608.85 826.683 609.314 826.304 609.691C825.926 610.067 825.461 610.345 824.95 610.5C821.84 611.83 818.32 611.74 814.95 611.6C813.967 611.65 812.989 611.421 812.13 610.94C810.92 610.11 810.62 608.47 810.54 607.01C810.31 602.76 811.03 598.49 810.54 594.26C810.38 592.72 810.05 591.2 809.81 589.68C809.36 587.562 809.428 585.366 810.01 583.28C810.588 581.828 811.395 580.477 812.4 579.28C813.29 577.973 814.42 576.846 815.73 575.96C816.13 575.72 817.26 574.96 817.66 575.45C817.87 575.68 817.78 576.3 817.81 576.59C817.861 577.034 817.937 577.475 818.04 577.91C818.289 578.91 818.68 579.87 819.2 580.76Z" fill="#EE8E9E"/>
<path opacity="0.05" d="M794.03 472.05C794.284 472.503 794.438 473.005 794.482 473.523C794.525 474.04 794.456 474.561 794.28 475.05C793.84 476.86 793.12 478.59 792.53 480.36C791.561 483.522 790.806 486.746 790.27 490.01C789.72 492.96 788.56 496.24 789.04 499.21C785.445 506.013 783.075 513.396 782.04 521.02C781.77 522.97 786.11 525.5 786.04 527.47C785.88 531.39 782.75 531.7 785.04 534.83C785.15 534.99 784.17 538.49 784.3 538.64C785.24 539.77 786.43 540.64 787.44 541.73C788.741 543.203 789.853 544.832 790.75 546.58C796.75 557.36 805.34 569.58 802.68 581.58C802.627 582.013 802.708 582.453 802.912 582.839C803.115 583.225 803.432 583.539 803.82 583.74C804.607 584.118 805.467 584.316 806.34 584.32H806.76C808.76 582.18 809.03 578.9 808.89 575.94C808.22 562.3 801.35 549.82 798.08 536.56C796.9 531.771 796.19 526.877 795.96 521.95C795.19 505.48 794.89 488.08 799.54 472.27C800.54 468.98 801.65 465.27 799.91 462.27C798.81 460.41 796.78 459.27 794.77 458.51C790.66 456.902 786.27 456.132 781.858 456.245C777.446 456.358 773.102 457.353 769.08 459.17C769.059 459.503 769.059 459.837 769.08 460.17C769.255 461.703 769.077 463.256 768.56 464.71C768.267 465.339 768.094 466.017 768.05 466.71C768.05 466.71 767.81 464.06 767.81 464.1C773.16 464.87 778.74 468.36 784.09 469.1C786.869 469.391 789.606 469.995 792.25 470.9C792.947 471.093 793.568 471.494 794.03 472.05Z" fill="black"/>
<path d="M831.05 442.89C831.77 445.18 832.41 447.49 832.95 449.82C833.196 450.622 833.261 451.469 833.14 452.3C832.851 453.049 832.604 453.814 832.4 454.59C832.28 455.82 833.13 456.9 833.61 458.05C834.82 460.97 833.53 464.26 832.26 467.15L828.47 475.72L825.37 482.72C824.45 484.81 823.53 486.9 822.64 489.01C818.597 498.614 815.294 508.513 812.76 518.62C812.674 519.079 812.501 519.517 812.25 519.91C811.72 520.61 810.77 520.81 810 521.24C809.454 521.594 808.997 522.07 808.667 522.63C808.337 523.191 808.141 523.821 808.097 524.47C808.052 525.119 808.159 525.77 808.41 526.37C808.66 526.971 809.047 527.505 809.54 527.93C809.1 533.08 812.96 538.05 814.95 542.82C819.52 553.82 818.69 566.14 820.27 577.92L818.49 576.92C816.78 577.7 816.84 580.12 815.93 581.75C814.55 584.21 811.18 584.56 808.37 584.37C807.494 584.367 806.63 584.169 805.84 583.79C805.453 583.589 805.138 583.274 804.935 582.888C804.733 582.501 804.655 582.062 804.71 581.63C807.36 569.63 798.71 557.38 792.77 546.63C791.875 544.884 790.763 543.258 789.46 541.79C788.46 540.72 787.27 539.79 786.32 538.69C783.69 535.53 783.32 531.07 783.53 526.96C783.95 517.289 786.5 507.831 791 499.26C790.53 496.26 791.69 493.01 792.24 490.06C792.768 486.796 793.52 483.571 794.49 480.41C795.08 478.64 795.8 476.91 796.24 475.1C796.418 474.612 796.488 474.092 796.447 473.574C796.405 473.056 796.253 472.554 796 472.1C795.555 471.58 794.967 471.201 794.31 471.01C791.665 470.109 788.928 469.505 786.15 469.21L767.77 466.57C767.18 462.79 766.58 458.57 766.99 454.79C767.432 451.267 768.9 447.952 771.212 445.256C773.523 442.561 776.576 440.604 779.99 439.63C780.374 439.472 780.788 439.403 781.202 439.429C781.616 439.455 782.019 439.575 782.38 439.78C798.6 436.602 815.366 437.673 831.05 442.89Z" fill="#3F3D56"/>
<path d="M814.35 343.5C814.08 345.294 814.359 347.127 815.15 348.76C815.693 349.656 816.402 350.44 817.24 351.07C819.014 352.504 821.084 353.528 823.3 354.07C824.6 354.4 826.06 354.62 826.92 355.66C828.21 357.22 827.35 359.57 826.25 361.27C824.35 364.27 821.7 366.92 818.31 367.84C815.6 368.58 812.7 368.13 809.93 368.61C807.93 368.96 806.03 369.79 804.05 370.26C801.224 370.915 798.278 370.851 795.483 370.074C792.688 369.296 790.132 367.83 788.05 365.81C790.99 363.55 794.05 361.14 795.58 357.75C796.655 355.327 796.856 352.605 796.15 350.05C795.44 347.54 793.85 345.05 794.35 342.53C794.85 340.01 797.35 338.21 799.86 337.34C802.117 336.643 804.439 336.174 806.79 335.94C808.08 335.76 816.31 333.94 816.79 334.84C817.08 335.35 815.37 338.35 815.16 339.01C814.678 340.46 814.405 341.972 814.35 343.5Z" fill="#A1616A"/>
<path opacity="0.05" d="M814.35 343.5C814.08 345.294 814.359 347.127 815.15 348.76C815.693 349.656 816.402 350.44 817.24 351.07C819.014 352.504 821.084 353.528 823.3 354.07C824.6 354.4 826.06 354.62 826.92 355.66C828.21 357.22 827.35 359.57 826.25 361.27C824.35 364.27 821.7 366.92 818.31 367.84C815.6 368.58 812.7 368.13 809.93 368.61C807.93 368.96 806.03 369.79 804.05 370.26C801.224 370.915 798.278 370.851 795.483 370.074C792.688 369.296 790.132 367.83 788.05 365.81C790.99 363.55 794.05 361.14 795.58 357.75C796.655 355.327 796.856 352.605 796.15 350.05C795.44 347.54 793.85 345.05 794.35 342.53C794.85 340.01 797.35 338.21 799.86 337.34C802.117 336.643 804.439 336.174 806.79 335.94C808.08 335.76 816.31 333.94 816.79 334.84C817.08 335.35 815.37 338.35 815.16 339.01C814.678 340.46 814.405 341.972 814.35 343.5Z" fill="black"/>
<path d="M804 349.5C813.218 349.5 820.69 342.028 820.69 332.81C820.69 323.592 813.218 316.12 804 316.12C794.782 316.12 787.31 323.592 787.31 332.81C787.31 342.028 794.782 349.5 804 349.5Z" fill="#A1616A"/>
<path d="M812.81 360.4L801.5 362.3C798.716 362.866 795.881 363.151 793.04 363.15C791.49 363 789.93 363 788.38 363.15C787.31 363.33 786.29 363.74 785.21 363.87C783.89 364.04 782.55 363.79 781.21 363.96C778.75 364.27 776.73 365.96 774.86 367.6C772.67 369.5 770.32 371.73 770.16 374.6C770.117 374.939 770.162 375.283 770.29 375.6C770.505 375.949 770.792 376.249 771.13 376.48C773.21 378.18 774.38 380.73 775.86 382.98C777.386 385.297 779.285 387.344 781.48 389.04C781.98 388.72 782.92 389.56 782.7 390.1C782.48 390.64 781.95 391.03 781.77 391.59C781.37 392.87 782.95 393.81 783.6 394.99C784.25 396.17 783.93 397.65 784 398.99C784.07 400.33 784.67 401.92 784.87 403.42C785.32 406.89 783.61 410.55 784.87 413.84C784.12 413.825 783.388 414.068 782.797 414.529C782.205 414.99 781.79 415.64 781.62 416.37C781.314 417.84 781.358 419.361 781.75 420.81C780.788 421.377 779.999 422.197 779.47 423.181C778.941 424.165 778.692 425.275 778.75 426.39C778.801 426.524 778.822 426.668 778.812 426.811C778.803 426.954 778.762 427.093 778.694 427.22C778.626 427.346 778.531 427.456 778.416 427.542C778.302 427.628 778.17 427.689 778.03 427.72C776.998 428.149 776.117 428.875 775.499 429.807C774.881 430.738 774.554 431.832 774.56 432.95C774.608 433.323 774.574 433.702 774.46 434.06C774.259 434.403 773.978 434.691 773.64 434.9C772.878 435.513 772.265 436.29 771.844 437.173C771.423 438.056 771.207 439.022 771.21 440C771.177 440.659 771.318 441.315 771.62 441.902C771.922 442.488 772.374 442.985 772.93 443.34C775.357 444.414 777.911 445.174 780.53 445.6C782.958 446.167 785.415 446.601 787.89 446.9C790.181 447.09 792.481 447.16 794.78 447.11L809.92 447.05C814.17 447.05 818.43 447.05 822.68 446.73C826.68 446.47 830.68 445.97 834.53 447.01C835.01 446.2 834.24 445.26 833.77 444.44C833.228 443.33 832.931 442.115 832.9 440.88L831.95 430.79C831.759 429.405 831.732 428.002 831.87 426.61C832.08 425.12 832.64 423.71 832.93 422.24C833.48 419.41 832.93 416.49 833.11 413.61C833.3 411.069 833.743 408.554 834.43 406.1L837.43 393.75C837.785 391.656 838.279 389.588 838.91 387.56C841.21 381.627 843.627 375.747 846.16 369.92C846.256 369.667 846.294 369.395 846.271 369.125C846.249 368.855 846.166 368.594 846.03 368.36L843.53 363.87C842.859 362.598 842.094 361.377 841.24 360.22C839.124 357.547 836.131 355.709 832.79 355.03C829.446 354.383 825.981 354.898 822.97 356.49C821.8 357.11 820.72 357.88 819.53 358.49C817.52 359.49 815.07 360.55 812.81 360.4Z" fill="#F86D70"/>
<path d="M772.65 371.39L768.71 376.65C768.342 377.092 768.033 377.579 767.79 378.1C767.19 379.48 767.52 381.1 767.2 382.56C766.959 383.505 766.571 384.406 766.05 385.23C764.567 387.835 762.896 390.328 761.05 392.69C760.19 393.881 759.139 394.921 757.94 395.77C757.333 396.186 756.644 396.467 755.92 396.594C755.196 396.722 754.452 396.693 753.74 396.51C754.337 396.744 754.828 397.189 755.12 397.76C756.519 400.815 756.87 404.245 756.12 407.52C755.938 408.641 755.566 409.724 755.02 410.72C754.468 411.719 753.578 412.488 752.51 412.89C752.578 413.387 752.747 413.866 753.007 414.296C753.266 414.726 753.61 415.099 754.018 415.391C754.426 415.684 754.889 415.891 755.379 415.999C755.87 416.107 756.377 416.114 756.87 416.02C757.645 415.783 758.375 415.418 759.03 414.94L765.36 410.84C766.421 410.214 767.411 409.473 768.31 408.63C769.49 407.45 770.31 405.96 771.47 404.74C773.47 402.67 776.31 401.43 777.7 398.93C778.57 397.37 778.7 395.52 779.25 393.81C779.6 392.7 780.12 391.64 780.45 390.52C781.345 386.967 780.882 383.209 779.15 379.98C777.52 376.73 774.99 374.15 772.65 371.39Z" fill="#F86D70"/>
<path d="M787.51 323.3C789.05 320.9 791.044 318.825 793.38 317.19C796.49 314.86 800.08 312.93 803.97 312.71C805.594 312.623 807.218 312.889 808.73 313.49C808.81 308.77 809.98 305.64 812.92 306.11C818.41 306.99 824.51 309.11 826.61 314.25C828.19 318.14 826.97 322.51 826.61 326.69C826.455 327.792 826.495 328.912 826.73 330C827.326 331.723 828.319 333.282 829.63 334.55C831.306 336.281 832.715 338.253 833.81 340.4C834.35 341.48 834.654 342.663 834.703 343.87C834.751 345.077 834.542 346.28 834.09 347.4C833.743 347.963 833.508 348.588 833.4 349.24C833.33 350.67 834.82 351.57 835.92 352.48C840.04 355.89 839.86 362.1 839.92 367.48C839.993 378.42 842.436 389.214 847.08 399.12C845.344 400.001 843.383 400.338 841.452 400.087C839.522 399.835 837.712 399.007 836.26 397.71C836.834 400.148 837.659 402.521 838.72 404.79C835.23 406.48 831.03 403.7 829.29 400.25C827.55 396.8 827.29 392.77 826.09 389.11C824.89 385.45 822.6 382.22 821.6 378.53C821.407 377.283 820.983 376.082 820.35 374.99C819.722 374.252 818.979 373.621 818.15 373.12C814.56 370.54 819.85 351 818.45 346.81C816.36 347.26 812.52 337.18 810.33 326.93C808.806 327.458 807.179 327.622 805.58 327.41C805.022 327.285 804.449 327.245 803.88 327.29C803.355 327.401 802.854 327.604 802.4 327.89C800.787 328.887 799.098 329.756 797.35 330.49C793.73 331.84 789.74 331.66 785.89 331.49C785.371 328.653 785.95 325.725 787.51 323.3Z" fill="#3A3768"/>
<path d="M787.51 323.3C789.05 320.9 791.044 318.825 793.38 317.19C796.49 314.86 800.08 312.93 803.97 312.71C805.594 312.623 807.218 312.889 808.73 313.49C808.81 308.77 809.98 305.64 812.92 306.11C818.41 306.99 824.51 309.11 826.61 314.25C828.19 318.14 826.97 322.51 826.61 326.69C826.455 327.792 826.495 328.912 826.73 330C827.326 331.723 828.319 333.282 829.63 334.55C831.306 336.281 832.715 338.253 833.81 340.4C834.35 341.48 834.654 342.663 834.703 343.87C834.751 345.077 834.542 346.28 834.09 347.4C833.743 347.963 833.508 348.588 833.4 349.24C833.33 350.67 834.82 351.57 835.92 352.48C840.04 355.89 839.86 362.1 839.92 367.48C839.993 378.42 842.436 389.214 847.08 399.12C845.344 400.001 843.383 400.338 841.452 400.087C839.522 399.835 837.712 399.007 836.26 397.71C836.834 400.148 837.659 402.521 838.72 404.79C835.23 406.48 831.03 403.7 829.29 400.25C827.55 396.8 827.29 392.77 826.09 389.11C824.89 385.45 822.6 382.22 821.6 378.53C821.407 377.283 820.983 376.082 820.35 374.99C819.722 374.252 818.979 373.621 818.15 373.12C814.56 370.54 819.85 351 818.45 346.81C816.36 347.26 812.52 337.18 810.33 326.93C808.806 327.458 807.179 327.622 805.58 327.41C805.022 327.285 804.449 327.245 803.88 327.29C803.355 327.401 802.854 327.604 802.4 327.89C800.787 328.887 799.098 329.756 797.35 330.49C793.73 331.84 789.74 331.66 785.89 331.49C785.371 328.653 785.95 325.725 787.51 323.3Z" fill="#3F3D56"/>
<g opacity="0.1">
<path opacity="0.1" d="M845.04 399.09C840.4 389.183 837.958 378.39 837.88 367.45C837.88 362.1 838.03 355.89 833.88 352.45C832.78 351.54 831.29 350.64 831.35 349.21C831.462 348.557 831.7 347.932 832.05 347.37C832.5 346.249 832.707 345.046 832.659 343.84C832.611 342.634 832.308 341.451 831.77 340.37C830.675 338.223 829.266 336.251 827.59 334.52C826.276 333.253 825.28 331.694 824.68 329.97C824.455 328.881 824.415 327.762 824.56 326.66C824.97 322.48 826.2 318.11 824.56 314.22C822.56 309.22 816.75 307.1 811.4 306.17C811.865 306.023 812.36 305.992 812.84 306.08C818.33 306.96 824.43 309.08 826.53 314.22C828.11 318.11 826.89 322.48 826.53 326.66C826.375 327.762 826.415 328.882 826.65 329.97C827.246 331.693 828.239 333.252 829.55 334.52C831.226 336.251 832.635 338.223 833.73 340.37C834.27 341.45 834.574 342.633 834.623 343.84C834.671 345.047 834.462 346.25 834.01 347.37C833.663 347.933 833.428 348.558 833.32 349.21C833.25 350.64 834.74 351.54 835.84 352.45C839.96 355.86 839.78 362.07 839.84 367.45C839.913 378.39 842.356 389.184 847 399.09C845.37 399.937 843.526 400.285 841.7 400.09C842.868 399.976 844.002 399.637 845.04 399.09Z" fill="black"/>
<path opacity="0.1" d="M836.69 404.76C835.624 402.493 834.8 400.12 834.23 397.68C834.933 398.324 835.733 398.854 836.6 399.25C837.121 401.136 837.789 402.979 838.6 404.76C837.594 405.236 836.463 405.38 835.37 405.17C835.827 405.094 836.271 404.956 836.69 404.76Z" fill="black"/>
<path opacity="0.1" d="M806.77 313.49C805.751 313.09 804.68 312.838 803.59 312.74H803.97C804.915 312.69 805.863 312.761 806.79 312.95C806.78 313.11 806.77 313.29 806.77 313.49Z" fill="black"/>
<path opacity="0.1" d="M795.41 330.49C797.162 329.756 798.853 328.887 800.47 327.89C800.923 327.602 801.424 327.399 801.95 327.29C802.472 327.245 802.997 327.275 803.51 327.38C803.135 327.515 802.773 327.686 802.43 327.89C800.817 328.886 799.128 329.756 797.38 330.49C794.651 331.387 791.777 331.761 788.91 331.59C791.122 331.584 793.319 331.212 795.41 330.49Z" fill="black"/>
<path opacity="0.1" d="M808.4 326.89L808.49 327.34C807.67 327.468 806.836 327.492 806.01 327.41C806.823 327.326 807.625 327.152 808.4 326.89Z" fill="black"/>
</g>
<path d="M843.14 404.32C843.041 405.204 843.137 406.099 843.42 406.942C843.703 407.784 844.167 408.555 844.78 409.2C845.474 409.87 846.254 410.446 847.1 410.91C847.928 411.456 848.874 411.799 849.86 411.91C851.19 411.866 852.453 411.315 853.39 410.37C856.3 407.82 857.75 404.04 859.09 400.42C861.028 395.678 862.472 390.748 863.4 385.71C864.22 380.28 863.87 374.65 865.4 369.38C864.02 366.62 863.14 363.58 861.57 360.92C860.575 359.334 859.693 357.68 858.93 355.97C857.468 352.33 857.302 348.298 858.46 344.55C858.186 344.369 857.863 344.281 857.535 344.297C857.208 344.313 856.894 344.433 856.64 344.64C856.142 345.07 855.763 345.621 855.54 346.24C854.638 348.355 854.263 350.658 854.45 352.95C854.561 353.503 854.495 354.077 854.26 354.59C854.047 354.851 853.774 355.056 853.463 355.187C853.153 355.317 852.815 355.37 852.48 355.34C851.08 355.277 849.694 355.028 848.36 354.6C844.219 353.542 839.929 353.187 835.67 353.55C834.81 353.57 833.964 353.775 833.19 354.15C832.806 354.342 832.484 354.638 832.26 355.004C832.035 355.37 831.917 355.791 831.92 356.22L842.06 357.71C842.827 357.753 843.567 358.005 844.2 358.44C844.499 358.67 844.697 359.008 844.751 359.381C844.805 359.755 844.711 360.134 844.49 360.44C844.273 360.617 844.039 360.772 843.79 360.9C843.536 361.101 843.332 361.358 843.194 361.651C843.056 361.945 842.988 362.266 842.996 362.59C843.004 362.914 843.087 363.232 843.239 363.518C843.39 363.804 843.606 364.052 843.87 364.24C844.129 364.353 844.364 364.516 844.56 364.72C844.98 365.28 844.43 366.01 844.25 366.72C844.174 367.216 844.249 367.723 844.467 368.174C844.685 368.626 845.035 369.001 845.47 369.25C846.353 369.723 847.31 370.045 848.3 370.2C850.297 370.665 852.241 371.336 854.1 372.2C854.706 372.415 855.232 372.809 855.61 373.33C855.788 373.788 855.863 374.279 855.832 374.77C855.801 375.26 855.664 375.738 855.43 376.17L852.79 383.29C852.37 384.41 851.96 385.52 851.44 386.6C850.77 387.99 849.94 389.3 849.25 390.69C848.63 391.993 848.079 393.328 847.6 394.69C846.25 398.3 843.6 400.47 843.14 404.32Z" fill="#A1616A"/>
<path d="M406.43 129.06V464.47C395.242 460.869 383.553 459.067 371.8 459.13C321.93 459.13 281.43 494.42 281.43 544.29C281.43 594.16 321.93 629.06 371.8 629.06C421.67 629.06 462.42 592.34 462.42 539.06V306.14H725.42V464.47C714.232 460.869 702.543 459.066 690.79 459.13C640.92 459.13 600.42 494.42 600.42 544.29C600.42 594.16 640.92 629.06 690.79 629.06C740.66 629.06 781.41 592.34 781.41 539.06V129.06H406.43ZM725.43 254.06H462.43V185.06H725.43V254.06Z" fill="#2D3436"/>
<path d="M140.43 92.06V317.16C124.189 307.791 105.309 304.044 86.7212 306.501C68.133 308.958 50.8756 317.482 37.6269 330.75C24.3782 344.017 15.8792 361.287 13.4486 379.878C11.018 398.47 14.7919 417.344 24.1845 433.572C33.5771 449.8 48.0634 462.473 65.3951 469.626C82.7269 476.78 101.935 478.012 120.039 473.133C138.143 468.253 154.13 457.535 165.52 442.641C176.909 427.747 183.064 409.51 183.03 390.76V177.36H268.43V92.06H140.43Z" fill="#2D3436"/>
<path opacity="0.1" d="M255.43 92.06V163.36H170.03V376.76C170.035 392.787 165.524 408.49 157.013 422.071C148.502 435.651 136.337 446.557 121.911 453.54C107.485 460.523 91.3841 463.298 75.4531 461.549C59.5222 459.8 44.4068 453.596 31.84 443.65C42.8243 457.55 57.8648 467.684 74.8724 472.644C91.88 477.605 110.01 477.145 126.745 471.33C143.479 465.514 157.987 454.631 168.253 440.192C178.519 425.754 184.033 408.476 184.03 390.76V177.36H269.43V92.06H255.43Z" fill="black"/>
<path d="M14.47 110.58L14.76 112.76L24.21 114.1C24.21 114.1 24.98 113.52 26.21 112.73C28.45 111.26 32.21 109.07 35.41 108.45C40.36 107.45 56.1 100.4 51.03 99.94C45.96 99.48 46.48 100.53 46.48 100.53C46.48 100.53 40.89 95.04 35.12 100.06C30.74 103.87 21.12 107.97 16.73 109.72C15.33 110.27 14.47 110.58 14.47 110.58Z" fill="#EFB7B9"/>
<path d="M52.22 85.52C53.6651 84.9136 55.1914 84.5227 56.75 84.36C57.5295 84.2797 58.3172 84.3667 59.0604 84.615C59.8036 84.8633 60.4853 85.2673 61.06 85.8C61.67 86.43 62.06 87.24 62.66 87.88C65.54 90.96 71.13 88.66 74.6 91.05C76.73 92.53 77.39 95.32 78.15 97.81C78.91 100.3 80.29 103.03 82.83 103.56C84.0608 103.678 85.3018 103.631 86.52 103.42C87.1315 103.323 87.7576 103.385 88.3387 103.598C88.9198 103.812 89.4366 104.17 89.84 104.64C91.02 106.43 89.39 109.42 91.1 110.7C92.63 111.83 95.4 110.25 96.47 111.82C96.6755 112.241 96.7501 112.713 96.6842 113.177C96.6182 113.64 96.4147 114.073 96.1 114.42C95.4647 115.101 94.883 115.83 94.36 116.6C94.0824 117.128 93.9529 117.721 93.9854 118.316C94.0179 118.912 94.211 119.487 94.5444 119.981C94.8777 120.476 95.3388 120.871 95.8786 121.124C96.4184 121.377 97.0167 121.48 97.61 121.42C98.69 121.31 99.84 120.7 100.78 121.23C101.074 121.425 101.319 121.687 101.492 121.995C101.666 122.303 101.765 122.647 101.78 123C101.848 124.197 101.451 125.373 100.672 126.284C99.8933 127.196 98.7927 127.771 97.6 127.89C95.76 128.01 94.07 127.01 92.43 126.17C90.79 125.33 88.86 124.62 87.16 125.32C86.3783 125.7 85.6626 126.203 85.04 126.81C83.0928 128.445 80.8901 129.749 78.52 130.67C76.44 131.49 74.02 131.98 72.02 130.96C69.77 129.81 68.61 127.01 66.23 126.16C63.85 125.31 61.13 126.9 58.85 128.25C56.57 129.6 53.52 130.73 51.46 129.07C49.24 127.28 49.92 123.69 48.57 121.18C48.0225 120.24 47.2831 119.426 46.4 118.79C44.88 117.62 43.15 116.74 41.62 115.59C40.0151 114.508 38.8568 112.881 38.36 111.01C37.91 108.74 38.99 106.47 40.22 104.51C41.45 102.55 42.88 100.63 43.28 98.36C43.58 96.66 43.28 94.89 43.67 93.21C43.9457 92.2019 44.466 91.2774 45.1847 90.5185C45.9034 89.7597 46.7983 89.19 47.79 88.86C48.91 88.48 49.11 88.58 49.68 87.59C49.9333 87.0852 50.2905 86.6398 50.7283 86.283C51.1661 85.9262 51.6745 85.6662 52.22 85.52Z" fill="#3F3D56"/>
<g opacity="0.1">
<path opacity="0.1" d="M90.11 105.33C90.3475 106.311 90.4085 107.327 90.29 108.33C90.0436 107.35 89.9826 106.332 90.11 105.33Z" fill="black"/>
<path opacity="0.1" d="M94.39 116.78C94.2125 117.124 94.0974 117.496 94.05 117.88C93.8686 117.432 93.7854 116.95 93.8061 116.467C93.8268 115.984 93.9509 115.511 94.17 115.08C94.6925 114.312 95.2743 113.587 95.91 112.91C96.1265 112.604 96.2951 112.267 96.41 111.91L96.49 112C96.6946 112.419 96.7697 112.889 96.7056 113.35C96.6414 113.811 96.441 114.243 96.13 114.59C95.4937 115.273 94.9119 116.006 94.39 116.78Z" fill="black"/>
<path opacity="0.1" d="M41.42 114.1C42.95 115.26 44.67 116.1 46.19 117.31C47.0757 117.943 47.8157 118.758 48.36 119.7C49.71 122.21 49.03 125.8 51.25 127.59C53.31 129.25 56.37 128.13 58.65 126.77C60.93 125.41 63.53 123.77 66.02 124.68C68.51 125.59 69.56 128.33 71.82 129.48C73.82 130.48 76.23 130 78.32 129.19C80.6859 128.267 82.8849 126.963 84.83 125.33C85.4567 124.726 86.1715 124.22 86.95 123.83C88.66 123.14 90.59 123.83 92.23 124.69C93.87 125.55 95.56 126.53 97.39 126.41C98.444 126.294 99.4275 125.824 100.181 125.078C100.934 124.332 101.413 123.353 101.54 122.3C101.658 122.581 101.732 122.877 101.76 123.18C101.839 124.378 101.451 125.559 100.677 126.477C99.903 127.394 98.8038 127.976 97.61 128.1C95.78 128.22 94.08 127.22 92.45 126.39C90.82 125.56 88.88 124.84 87.17 125.53C86.3939 125.92 85.6796 126.422 85.05 127.02C83.1053 128.656 80.9063 129.963 78.54 130.89C76.46 131.7 74.03 132.19 72.04 131.18C69.78 130.03 68.63 127.23 66.24 126.38C63.85 125.53 61.14 127.11 58.87 128.47C56.6 129.83 53.53 130.95 51.47 129.28C49.25 127.49 49.93 123.91 48.58 121.39C48.0325 120.453 47.293 119.642 46.41 119.01C44.9 117.84 43.17 116.96 41.64 115.8C40.0313 114.72 38.8694 113.092 38.37 111.22C38.2921 110.825 38.2586 110.422 38.27 110.02C38.8641 111.678 39.9665 113.106 41.42 114.1Z" fill="black"/>
</g>
<path d="M45.47 166.04L42.04 166.77C42.04 166.77 45.42 172.33 50.63 168.68C55.84 165.03 45.47 166.04 45.47 166.04Z" fill="#4C4981"/>
<path opacity="0.1" d="M45.47 166.04L42.04 166.77C42.04 166.77 45.42 172.33 50.63 168.68C55.84 165.03 45.47 166.04 45.47 166.04Z" fill="black"/>
<path d="M119.92 217.79C119.92 217.79 124.68 220.25 129.11 223.1C132.29 225.1 135.3 227.37 136.28 229.04C138.64 233.04 150.11 237.38 150.11 237.38L161.49 246.04C164.17 246.93 166.78 250.19 167.85 251.65C168.17 252.09 168.36 252.37 168.36 252.37L172.92 251.78L175.32 248.66C175.32 248.66 175.93 241.78 171.19 241.86C170.261 241.823 169.351 241.588 168.52 241.17C163.42 238.92 156.29 231.82 156.29 231.82C156.29 231.82 144.17 216.68 140.54 216.18C140.151 216.121 139.77 216.024 139.4 215.89C135.71 214.6 130.4 209.84 130.4 209.84L119.92 217.79Z" fill="#EFB7B9"/>
<path d="M72.91 261.56C74.12 268.83 79.63 282.73 81.4 285.63C83.6 289.22 84.75 296.41 84.75 296.41L85.4 301.41C85.5218 302.095 85.7657 302.752 86.12 303.35C86.3144 303.695 86.5281 304.029 86.76 304.35L95.89 301.54C95.89 301.54 95.36 299.44 94.56 297.03C93.76 294.62 92.56 291.59 91.42 290.47C89.19 288.28 88.86 280.55 88.86 280.55C88.86 280.55 87 265.69 86.43 263.82C85.8999 262.035 85.5646 260.197 85.43 258.34C85.34 257.34 85.28 256.2 85.27 254.91C85.0814 251.211 84.5999 247.533 83.83 243.91L73.18 245.84L72.9 257.75C72.5941 259.002 72.5975 260.31 72.91 261.56Z" fill="#EFB7B9"/>
<path opacity="0.1" d="M167.85 251.65C168.17 252.09 168.36 252.37 168.36 252.37L172.92 251.78L175.32 248.66C175.32 248.66 175.93 241.78 171.19 241.86C170.261 241.823 169.351 241.588 168.52 241.17C168.13 243.23 170.44 244.94 170.44 244.94C170.44 244.94 171.44 245.64 171.17 248.87C171.02 251.07 169.07 251.54 167.85 251.65Z" fill="black"/>
<path d="M167.35 252.07C167.65 253.18 170.53 254.81 172.53 255.83C173.53 256.33 174.28 256.68 174.43 256.76C174.89 256.99 177.31 254.3 177.64 252.13C177.97 249.96 183.74 243.21 183.74 243.21C184.959 240.546 185.684 237.683 185.88 234.76C186.1 231.81 184.88 231.57 183.43 232.24C182.394 232.785 181.466 233.514 180.69 234.39C179.7 235.321 178.471 235.958 177.14 236.23C175.331 236.678 173.605 237.414 172.03 238.41C170.63 239.31 169.27 240.41 169.03 241.41C168.5 243.54 170.92 245.34 170.92 245.34C170.92 245.34 171.92 246.04 171.65 249.27C171.38 252.5 167.32 251.97 167.35 252.07Z" fill="#444053"/>
<path opacity="0.1" d="M172.53 255.83C173.53 256.33 174.28 256.68 174.43 256.76C174.89 256.99 177.31 254.3 177.64 252.13C177.97 249.96 183.74 243.21 183.74 243.21C184.959 240.546 185.684 237.683 185.88 234.76C186.1 231.81 184.88 231.57 183.43 232.24C183.19 234.58 182.6 239.13 181.43 241.5C179.97 244.32 174.12 253.38 172.53 255.83Z" fill="black"/>
<path opacity="0.1" d="M86.21 303.17L86.12 303.34C86.3145 303.685 86.5281 304.019 86.76 304.34L95.89 301.53C95.89 301.53 95.36 299.43 94.56 297.02C90.95 296.02 85.77 302.33 85.77 302.33L86.21 303.17Z" fill="black"/>
<path d="M85.6 309.97C85.6 309.97 93.22 312.64 96.6 312.23C99.21 311.92 99.32 310.71 99.14 308.23C99.08 307.43 99 306.51 98.95 305.45C98.78 301.05 97.01 300.16 97.01 300.16C94.11 292.56 85.76 302.76 85.76 302.76L86.19 303.6C85.5877 304.898 85.2967 306.319 85.34 307.75C85.3581 308.496 85.4451 309.24 85.6 309.97Z" fill="#444053"/>
<path opacity="0.1" d="M85.6 309.97C85.6 309.97 93.22 312.64 96.6 312.23C99.21 311.92 99.32 310.71 99.14 308.23C98.2833 308.938 97.2895 309.462 96.2209 309.769C95.1523 310.075 94.0319 310.157 92.93 310.01C90.2939 309.674 87.7303 308.911 85.34 307.75C85.3581 308.496 85.4452 309.24 85.6 309.97Z" fill="black"/>
<path d="M47.83 125.15L50.83 138.15L51.44 140.83L56.95 141.53L62.63 142.25L68.81 140.01C68.81 140.01 70.53 134.13 69.11 129.72C68.6624 128.15 67.6418 126.804 66.25 125.95C65.8183 125.692 65.4188 125.383 65.06 125.03C64.6488 124.613 64.3108 124.129 64.06 123.6C63.7591 122.948 63.5794 122.246 63.53 121.53C63.22 118.02 65.44 114.18 65.44 114.18C65.44 114.18 52.34 109.71 53.36 112.6C54.03 114.47 52.18 117.73 50.8 119.79C50.05 120.9 49.44 121.67 49.44 121.67L47.83 125.15Z" fill="#EFB7B9"/>
<path opacity="0.1" d="M59.65 120.14C65.935 120.14 71.03 115.045 71.03 108.76C71.03 102.475 65.935 97.38 59.65 97.38C53.365 97.38 48.27 102.475 48.27 108.76C48.27 115.045 53.365 120.14 59.65 120.14Z" fill="black"/>
<path d="M59.6 119.72C65.885 119.72 70.98 114.625 70.98 108.34C70.98 102.055 65.885 96.96 59.6 96.96C53.315 96.96 48.22 102.055 48.22 108.34C48.22 114.625 53.315 119.72 59.6 119.72Z" fill="#EFB7B9"/>
<path d="M48.65 168.41C49.19 170.92 51.65 174.87 51.65 174.87L67.54 178.77L78.89 166.89V166.81C78.54 165.7 74.21 151.69 77.34 148.24C80.62 144.65 79.34 134.52 79.34 134.52C79.34 134.52 73.67 128 72.52 126.42C71.37 124.84 64.01 123.6 64.01 123.6C64.38 124.1 64.72 124.6 65.01 125.03C65.805 126.211 66.4154 127.505 66.82 128.87C67.2949 130.23 67.2414 131.718 66.67 133.04C66.496 133.379 66.365 133.738 66.28 134.11C65.04 139.54 59.38 138.78 57.13 138.24C56.55 138.1 56.19 137.98 56.19 137.98L50.78 138.15L47.38 138.26C47.38 138.26 48.93 165.04 48.56 167.17C48.514 167.585 48.5445 168.006 48.65 168.41Z" fill="#F86D70"/>
<path d="M47.47 139.64L57.32 138.35H57.14C56.56 138.21 56.21 138.09 56.21 138.09L50.79 138.26L47.4 138.37C47.4 138.37 47.42 138.81 47.47 139.64Z" fill="#925978"/>
<path d="M58.52 176.58L62.79 177.62L69.52 176.74L71.27 174.91L58.52 176.58Z" fill="#925978"/>
<path d="M65.63 178.32L67.56 178.79L68.35 177.96L65.63 178.32Z" fill="#925978"/>
<path opacity="0.1" d="M48.65 168.41C51.19 168.67 53.53 168.8 53.53 168.8L66.62 168.31V154.64C65.0623 153.199 63.2786 152.023 61.34 151.16C59.06 150.37 56.34 147.95 56.88 141.57C56.88 141.2 56.94 140.82 56.99 140.43C57.0826 139.717 57.1227 138.999 57.11 138.28C57.1148 136.703 56.795 135.141 56.1705 133.693C55.546 132.244 54.6302 130.939 53.48 129.86C53.421 129.799 53.3575 129.742 53.29 129.69L51.16 119.77C51.015 119.775 50.8709 119.795 50.73 119.83C49.98 120.94 49.37 121.71 49.37 121.71L47.8 125.15L50.8 138.15L47.4 138.26C47.4 138.26 48.95 165.04 48.58 167.17C48.5275 167.584 48.5512 168.004 48.65 168.41Z" fill="black"/>
<path d="M53.1 168.89L66.19 168.41V154.73C64.634 153.291 62.854 152.116 60.92 151.25C58.51 150.41 55.64 147.77 56.57 140.52C56.9082 138.599 56.7675 136.623 56.1605 134.769C55.5536 132.915 54.4989 131.239 53.09 129.89L52.89 129.72L50.76 119.8C50.0917 119.857 49.4439 120.059 48.8618 120.393C48.2798 120.726 47.7775 121.183 47.39 121.73C47.1593 122.138 46.895 122.526 46.6 122.89C46.3436 123.331 45.9286 123.657 45.4398 123.802C44.9509 123.947 44.4252 123.9 43.97 123.67C42.59 123.06 36.65 120.55 35.32 123.01C33.99 125.47 33.74 140.12 33.74 140.12C35.7049 141.732 37.0627 143.964 37.59 146.45C38.5 150.64 40.02 150.74 40.02 150.74L41.66 162.74C41.66 162.74 43.15 165.35 42.04 166.79" fill="#444053"/>
<path d="M46.6 122.89L48.83 129.57L53.09 129.94L52.89 129.77L50.76 119.85C50.0917 119.907 49.4439 120.109 48.8619 120.443C48.2798 120.776 47.7775 121.233 47.39 121.78C47.157 122.171 46.8928 122.542 46.6 122.89Z" fill="#444053"/>
<path opacity="0.1" d="M14.47 110.58L14.76 112.76L24.21 114.1C24.21 114.1 24.98 113.52 26.21 112.73C25.21 112.5 20.51 111.48 18.05 110.73C17.14 110.45 16.54 110.21 16.52 110.05C16.5 109.89 16.58 109.86 16.73 109.74C15.33 110.27 14.47 110.58 14.47 110.58Z" fill="black"/>
<path d="M3.38999 124.69C3.38999 124.69 14.1 132.82 20.74 134.13C20.74 134.13 30.08 136.89 33.74 140.13L37.74 124.71L35.29 123.02C35.29 123.02 32.36 124.83 29.84 124.23C27.32 123.63 24.53 123.23 24.53 123.23C22.3241 122.417 20.0524 121.794 17.74 121.37C15.94 121.22 16.67 118.88 18.47 117.64C18.7038 117.473 18.9553 117.332 19.22 117.22C19.5507 117.68 20.0384 118.003 20.5911 118.129C21.1438 118.254 21.7232 118.173 22.22 117.9C22.8988 117.461 23.4947 116.906 23.98 116.26C24.7247 115.314 25.3935 114.311 25.98 113.26C25.98 113.26 20.39 112.06 17.61 111.2C16.7 110.92 16.1 110.68 16.08 110.52C16 109.88 21.08 107.86 21.08 107.86C21.08 107.86 16.74 105.76 14.98 107.29C14.98 107.29 16.12 108.14 15.2 108.98C14.28 109.82 3.20001 118.35 3.20001 118.35C3.20001 118.35 -2.27001 121.04 3.38999 124.69Z" fill="#444053"/>
<path opacity="0.1" d="M12.6 116.8L18.53 117.65C18.7638 117.483 19.0153 117.342 19.28 117.23C19.6107 117.69 20.0984 118.013 20.6511 118.139C21.2038 118.264 21.7832 118.183 22.28 117.91C22.9588 117.471 23.5547 116.916 24.04 116.27C24.6336 115.462 25.1747 114.617 25.66 113.74C25.66 113.74 20.07 112.54 17.29 111.68L12.6 116.8Z" fill="black"/>
<path d="M12.94 116.32L19.25 117.23C19.5807 117.69 20.0684 118.013 20.6211 118.139C21.1738 118.264 21.7532 118.183 22.25 117.91C24.06 116.91 26.01 113.25 26.01 113.25C26.01 113.25 20.42 112.05 17.64 111.19L12.94 116.32Z" fill="#444053"/>
<path opacity="0.1" d="M130.43 209.89L119.92 217.84C119.92 217.84 124.68 220.3 129.11 223.15C132.98 220.53 136.63 218.15 139.4 215.94C135.71 214.6 130.43 209.89 130.43 209.89Z" fill="black"/>
<path opacity="0.1" d="M72.91 261.56C75.5371 261.235 78.1197 260.618 80.61 259.72C80.61 259.72 82.55 259.3 85.43 258.34C85.34 257.34 85.28 256.2 85.27 254.91C85.0814 251.211 84.5999 247.533 83.83 243.91L73.18 245.84L72.9 257.75C72.5941 259.002 72.5975 260.31 72.91 261.56Z" fill="black"/>
<path d="M53.93 213.24C56.07 216.41 61.93 229.89 61.93 229.89C63.251 232.283 64.7415 234.579 66.39 236.76C68.72 239.69 70.33 246.28 72.1 251.55C73.87 256.82 71.58 255.83 71.83 258.55C72.08 261.27 82.09 257.75 82.09 257.75C82.09 257.75 102.54 253.25 108.79 240.75C115.04 228.25 140 216.93 145.05 209.9C150.1 202.87 143.62 205.77 143.87 201.96C144.12 198.15 141.24 194.96 141.24 194.96C141.24 194.96 131.82 192.3 130.29 190.45C128.76 188.6 121.24 183.97 121.24 183.97C121.24 183.97 114.15 180.9 113.24 179.83C112.33 178.76 103.93 175.44 101.36 174.83C98.79 174.22 96.27 170.53 96.27 170.53C96.27 170.53 94.68 170.74 92.33 168.46C89.98 166.18 80.12 164.22 80.12 164.22C63.29 176.62 51.66 174.89 51.66 174.89L51.39 177.23C42.44 188.89 51.79 210.07 53.93 213.24Z" fill="#444053"/>
<path opacity="0.1" d="M51.39 177.21C51.39 177.21 65.94 182 80.13 164.28C63.29 176.62 51.66 174.89 51.66 174.89L51.39 177.21Z" fill="black"/>
<path opacity="0.1" d="M76.43 185.48C76.43 185.48 95.97 213.69 97.18 214.72C98.39 215.75 77.46 185.13 76.43 185.48Z" fill="black"/>
<path opacity="0.1" d="M67.4 183.32C67.4 183.32 80.93 204.32 80.66 207.16C80.66 207.16 67.6 186.97 67.4 183.32Z" fill="black"/>
<path opacity="0.1" d="M59.52 189.09C59.52 189.09 62.02 200.84 58.26 207.5L59.52 189.09Z" fill="black"/>
<path opacity="0.1" d="M54.32 189.77C54.32 189.77 54.16 199.94 53.02 202.03L54.32 189.77Z" fill="black"/>
<path opacity="0.1" d="M87.46 180.7L105.43 187.74L98.85 188.6L87.46 180.7Z" fill="black"/>
<path opacity="0.1" d="M52.08 102.03C52.98 102.63 53.73 103.58 54.8 103.72C55.5719 103.743 56.3355 103.556 57.01 103.18C58.8 102.4 60.82 101.8 62.68 102.41C65.32 103.28 66.77 106.32 69.4 107.22C70.2124 107.491 71.0826 107.539 71.92 107.36C72.421 107.243 72.9002 107.047 73.34 106.78C74.3545 106.133 75.0731 105.113 75.34 103.94C75.5232 102.922 75.4348 101.874 75.0837 100.901C74.7325 99.9288 74.1311 99.066 73.34 98.4C71.7221 97.0932 69.7985 96.2192 67.75 95.86C62.47 94.69 56.98 95.08 51.59 95.49C51.1473 95.4791 50.7105 95.5935 50.33 95.82C49.51 96.43 48.11 99.5 48.4 100.54C48.8 101.89 51.93 100.89 52.08 102.03Z" fill="black"/>
<path d="M52.03 101.61C52.93 102.2 53.67 103.16 54.75 103.3C55.5197 103.32 56.2804 103.13 56.95 102.75C58.74 101.97 60.77 101.37 62.62 101.98C65.26 102.86 66.71 105.9 69.34 106.79C70.1515 107.066 71.023 107.114 71.86 106.93C72.3618 106.821 72.8418 106.628 73.28 106.36C74.309 105.716 75.0476 104.698 75.34 103.52C75.5162 102.496 75.4194 101.444 75.0595 100.47C74.6996 99.4956 74.0893 98.6334 73.29 97.97C71.6701 96.6684 69.747 95.798 67.7 95.44C62.42 94.26 56.94 94.66 51.54 95.06C51.0965 95.0537 50.6601 95.1715 50.28 95.4C49.47 96 48.06 99.08 48.35 100.12C48.75 101.51 51.88 100.45 52.03 101.61Z" fill="#3F3D56"/>
<path d="M121.6 109.98L123.32 116.93L125.55 115.58L137.67 108.27C137.67 108.27 146.85 107.93 147.56 100.55C148.27 93.17 137.36 100.48 136.78 101.04C136.2 101.6 134.88 102.59 134.88 102.59L123.6 108.89L121.6 109.98Z" fill="#EFB7B9"/>
<path opacity="0.1" d="M121.6 109.98L123.32 116.93L125.55 115.58C125.06 112.44 124.29 109.58 123.55 108.88L121.6 109.98Z" fill="black"/>
<path opacity="0.1" d="M61.78 155.42L64.25 169.92L78.87 166.89C78.52 165.78 74.19 151.77 77.32 148.32C80.6 144.73 79.32 134.6 79.32 134.6C79.32 134.6 73.65 128.08 72.5 126.5C71.35 124.92 63.99 123.68 63.99 123.68C63.689 123.028 63.5094 122.326 63.46 121.61C63.2225 122.107 63.0349 122.626 62.9 123.16C62.9 125.8 63.97 127.62 66.8 128.95C67.05 129.07 67.31 129.18 67.59 129.29C68.03 129.47 68.52 129.64 69.04 129.8L69.28 129.87C73.99 131.27 75.01 134.09 75.01 134.09C76.6579 136.262 77.4225 138.977 77.15 141.69C76.69 146.14 61.78 155.42 61.78 155.42Z" fill="black"/>
<path d="M62.6 155.31L65.07 169.8L81.6 166.36C81.6 166.36 81.1 160.89 79.95 158.67C78.8 156.45 79.03 147.78 79.03 147.78C86.03 140.24 82.35 134.11 82.35 134.11C82.35 134.11 102.92 130.77 103.27 130.11C103.62 129.45 110.48 125.79 110.48 125.79C110.48 125.79 117.93 123.88 118.94 122.79C119.312 122.383 119.72 122.012 120.16 121.68C120.287 121.584 120.42 121.497 120.56 121.42L121.11 126.17H121.36C122.533 126.033 123.65 125.592 124.6 124.89C126.3 123.59 124.15 109.34 122.5 108.84C122.188 108.76 121.862 108.76 121.55 108.84C120.256 109.25 119.051 109.901 118 110.76L117.71 110.99L117.61 111.08C117.61 111.08 108.3 114.73 106.44 116.41C104.58 118.09 90.1 120.22 90.1 120.22C90.1 120.22 83.61 121.76 82.77 120.83C81.93 119.9 72.02 118.38 71.19 119.83C70.36 121.28 68.06 121.02 68.06 121.02C66.43 119.14 65.3 119.87 64.61 120.95C64.2131 121.598 63.9164 122.303 63.73 123.04C63.73 125.92 65 127.81 68.42 129.17C68.94 129.37 69.5 129.57 70.11 129.75C74.83 131.15 75.84 133.97 75.84 133.97C77.4933 136.14 78.2616 138.856 77.99 141.57C77.54 146.03 62.6 155.31 62.6 155.31Z" fill="#444053"/>
<path opacity="0.1" d="M121.6 108.89C121.779 108.879 121.958 108.899 122.13 108.95C123.78 109.45 125.92 123.71 124.22 125.01C123.37 125.65 122.379 126.079 121.33 126.26H121.08L120.53 121.51C120.39 121.587 120.257 121.674 120.13 121.77V121.57C120.564 119.748 120.579 117.852 120.172 116.024C119.764 114.196 118.947 112.485 117.78 111.02L121.6 108.89Z" fill="black"/>
<path d="M120.52 121.49L121.07 126.24C122.352 126.141 123.579 125.672 124.6 124.89C126.3 123.59 124.15 109.34 122.5 108.84C121.2 108.44 118.91 110.06 118 110.75C119.223 112.223 120.087 113.959 120.525 115.823C120.962 117.687 120.96 119.627 120.52 121.49Z" fill="#444053"/>
<path d="M68.46 129.14L70.83 126.92L64.65 120.92C64.2531 121.568 63.9565 122.273 63.77 123.01C63.79 125.89 65.04 127.78 68.46 129.14Z" fill="#444053"/>
<path opacity="0.1" d="M51.92 100.76C52.82 101.35 53.56 102.31 54.64 102.45C55.4097 102.47 56.1704 102.28 56.84 101.9C58.63 101.12 60.66 100.52 62.51 101.13C65.15 102.01 66.6 105.05 69.23 105.94C70.0415 106.216 70.9129 106.264 71.75 106.08C72.5926 105.898 73.3665 105.481 73.9823 104.877C74.5981 104.274 75.0307 103.509 75.23 102.67C75.3261 102.254 75.3631 101.826 75.34 101.4C75.5001 102.098 75.5001 102.822 75.34 103.52C75.0515 104.7 74.3119 105.719 73.28 106.36C72.8427 106.63 72.3624 106.822 71.86 106.93C71.0263 107.114 70.158 107.066 69.35 106.79C66.71 105.9 65.26 102.86 62.62 101.98C60.77 101.37 58.74 101.98 56.95 102.75C56.2804 103.13 55.5197 103.32 54.75 103.3C53.68 103.16 52.93 102.2 52.03 101.61C51.88 100.45 48.75 101.51 48.36 100.12C48.3185 99.9087 48.3185 99.6913 48.36 99.48C48.98 100.55 51.77 99.67 51.92 100.76Z" fill="black"/>
<path opacity="0.1" d="M61.6 133.49C61.6 133.49 60.29 137.17 61.96 138.41C61.96 138.41 60.13 133.54 59.07 133.65" fill="black"/>
<path d="M143.05 97.65C143.05 97.65 134.6 104.96 140.71 106.14C146.82 107.32 143.05 97.65 143.05 97.65Z" fill="#EFB7B9"/>
<g opacity="0.1">
<path opacity="0.1" d="M712.44 300.14H449.44V533.08C449.44 586.34 408.69 623.08 358.82 623.08C346.943 623.125 335.152 621.056 324 616.97C338.639 625.037 355.106 629.207 371.82 629.08C421.69 629.08 462.44 592.36 462.44 539.08V306.14H712.44V300.14Z" fill="black"/>
<path opacity="0.1" d="M449.42 248.05H462.42V185.04H712.44V179.04H449.42V248.05Z" fill="black"/>
<path opacity="0.1" d="M768.43 129.06V533.06C768.43 586.32 727.68 623.06 677.81 623.06C665.933 623.105 654.142 621.036 642.99 616.95C657.629 625.017 674.096 629.187 690.81 629.06C740.68 629.06 781.43 592.34 781.43 539.06V129.06H768.43Z" fill="black"/>
</g>
<path d="M470.83 36.89C477.28 50.22 487.83 65.38 499.76 59.59C511.69 53.8 520.6 29.24 514.15 15.89C507.7 2.53998 492.76 -3.53001 480.8 2.25999C468.84 8.04999 464.37 23.58 470.83 36.89Z" fill="#2D3436"/>
<path d="M496.36 68.03C496.36 68.03 498.69 67.64 497.8 65.72C497.72 65.5495 497.626 65.3857 497.52 65.23C497.048 64.477 496.745 63.6311 496.63 62.75C496.488 61.7214 496.525 60.6759 496.74 59.66L490.39 59.24C490.39 59.24 492.86 61.34 492.57 62.44C492.527 62.5998 492.423 62.7363 492.28 62.82C492.156 62.9116 492.012 62.9732 491.86 63L491.38 63.14C489.71 63.73 490.38 64.57 490.38 64.57C490.6 67.31 496.36 68.03 496.36 68.03Z" fill="#6C63FF"/>
<path d="M492.28 62.82L496.76 63.44C496.702 63.213 496.659 62.9825 496.63 62.75C495.49 62.7 493.7 62.55 492.57 62.44C492.527 62.5998 492.423 62.7363 492.28 62.82Z" fill="#444053"/>
<path d="M496.36 68.03C496.36 68.03 498.69 67.64 497.8 65.72C496.899 65.9332 495.965 65.9705 495.05 65.83C493.525 65.4412 492.21 64.4772 491.38 63.14C489.71 63.73 490.38 64.57 490.38 64.57C490.6 67.31 496.36 68.03 496.36 68.03Z" fill="#6C63FF"/>
<path opacity="0.1" d="M496.36 68.03C496.36 68.03 498.69 67.64 497.8 65.72C496.899 65.9332 495.965 65.9705 495.05 65.83C493.525 65.4412 492.21 64.4772 491.38 63.14C489.71 63.73 490.38 64.57 490.38 64.57C490.6 67.31 496.36 68.03 496.36 68.03Z" fill="black"/>
<path opacity="0.1" d="M492.97 3.66C492.97 3.66 500.07 2.8 502.08 7.53C501.23 7.3868 500.358 7.43808 499.53 7.68001C499.01 7.91619 498.441 8.02585 497.87 8.00001C496.801 6.01965 495.065 4.48203 492.97 3.66Z" fill="white"/>
<path d="M500.6 100.04C500.748 99.9222 500.882 99.788 501 99.64C501.43 99.1518 501.945 98.7453 502.52 98.44C502.723 98.3195 502.933 98.2126 503.15 98.12C503.792 97.8453 504.463 97.644 505.15 97.52C505.481 97.4624 505.815 97.4257 506.15 97.41L505.25 93.11V93.05L504.86 91.18C504.595 91.7228 504.295 92.2473 503.96 92.75C503.5 93.45 502.96 94.12 502.36 94.13C502.195 94.1274 502.036 94.0673 501.91 93.96C501.797 93.8566 501.702 93.7349 501.63 93.6C501.53 93.44 501.45 93.3 501.36 93.17C500.36 91.73 499.73 92.63 499.73 92.63C498.59 93.04 498.12 94.4 497.95 95.77C497.95 95.97 497.95 96.17 497.89 96.36C497.833 97.331 497.867 98.3052 497.99 99.27C497.99 99.27 499.02 101.42 500.6 100.04Z" fill="#2D3436"/>
<path d="M502.6 98.44C502.803 98.3195 503.013 98.2126 503.23 98.12C503.01 97.19 502.74 95.79 502.55 94.69C502.55 94.61 502.55 94.54 502.55 94.46C502.55 94.38 502.55 94.23 502.49 94.13C502.325 94.1274 502.166 94.0673 502.04 93.96L502.14 94.63V94.9L502.6 98.44Z" fill="#2D3436"/>
<path d="M500.6 100.04C500.154 99.2287 499.869 98.3392 499.76 97.42C499.741 96.8603 499.805 96.3009 499.95 95.76C500 95.6 500.04 95.44 500.1 95.29C500.331 94.4869 500.765 93.7569 501.36 93.17C500.36 91.73 499.73 92.63 499.73 92.63C498.59 93.04 498.12 94.4 497.95 95.77C497.95 95.97 497.95 96.17 497.89 96.36C497.833 97.331 497.867 98.3052 497.99 99.27C497.99 99.27 499.02 101.42 500.6 100.04Z" fill="#2D3436"/>
<path opacity="0.1" d="M500.6 100.04C500.154 99.2287 499.869 98.3392 499.76 97.42C499.741 96.8603 499.805 96.3009 499.95 95.76C500 95.6 500.04 95.44 500.1 95.29C500.331 94.4869 500.765 93.7569 501.36 93.17C500.36 91.73 499.73 92.63 499.73 92.63C498.59 93.04 498.12 94.4 497.95 95.77C497.95 95.97 497.95 96.17 497.89 96.36C497.833 97.331 497.867 98.3052 497.99 99.27C497.99 99.27 499.02 101.42 500.6 100.04Z" fill="#2D3436"/>
<path d="M457.35 58.89C462.75 62.36 468.98 65.72 474.9 67.5C479.45 68.88 483.81 69.32 487.46 68.16C489.041 67.6566 490.494 66.8174 491.72 65.7C492.551 64.9498 493.275 64.0883 493.87 63.14C498.1 56.53 498.02 44.91 494.67 34.85C492.33 27.85 488.45 21.65 483.34 18.37C470.88 10.37 454.96 12.97 447.78 24.16C440.6 35.35 444.89 50.89 457.35 58.89Z" fill="#2D3436"/>
<path opacity="0.1" d="M457.35 58.89C462.75 62.36 468.98 65.72 474.9 67.5C479.45 68.88 483.81 69.32 487.46 68.16C489.041 67.6566 490.494 66.8174 491.72 65.7C492.551 64.9498 493.275 64.0883 493.87 63.14C498.1 56.53 498.02 44.91 494.67 34.85C492.33 27.85 488.45 21.65 483.34 18.37C470.88 10.37 454.96 12.97 447.78 24.16C440.6 35.35 444.89 50.89 457.35 58.89Z" fill="#2D3436"/>
<path d="M488.51 72.3C490.1 74.52 495.37 72.14 495.37 72.14C495.37 72.14 497.16 70.6 495.37 69.43C495.213 69.326 495.049 69.2324 494.88 69.15C494.288 68.8696 493.75 68.4871 493.29 68.02C493.13 67.86 492.97 67.69 492.82 67.51C492.382 66.9638 492.006 66.3701 491.7 65.74C491.549 65.4392 491.419 65.1285 491.31 64.81L485.67 67.81C486.269 67.9111 486.861 68.0548 487.44 68.24C488.25 68.5 489.05 68.88 489.2 69.4C489.263 69.5537 489.263 69.7263 489.2 69.88C489.135 70.0197 489.043 70.1453 488.93 70.25C488.814 70.3677 488.704 70.4912 488.6 70.62C487.46 71.95 488.51 72.3 488.51 72.3Z" fill="#2D3436"/>
<path d="M489.18 69.89L493.31 68.07C493.15 67.91 492.99 67.74 492.84 67.56C491.84 68.1 490.25 68.91 489.22 69.41C489.271 69.569 489.256 69.7416 489.18 69.89Z" fill="#444053"/>
<path d="M488.51 72.3C490.1 74.52 495.37 72.14 495.37 72.14C495.37 72.14 497.16 70.6 495.37 69.43C494.716 70.0849 493.937 70.6018 493.08 70.95C491.582 71.4132 489.963 71.2807 488.56 70.58C487.46 71.95 488.51 72.3 488.51 72.3Z" fill="#2D3436"/>
<path opacity="0.1" d="M488.51 72.3C490.1 74.52 495.37 72.14 495.37 72.14C495.37 72.14 497.16 70.6 495.37 69.43C494.716 70.0849 493.937 70.6018 493.08 70.95C491.582 71.4132 489.963 71.2807 488.56 70.58C487.46 71.95 488.51 72.3 488.51 72.3Z" fill="#2D3436"/>
<path opacity="0.1" d="M458.88 19.01C458.88 19.01 464.49 14.58 468.67 17.56C467.873 17.8844 467.159 18.3833 466.58 19.02C466.256 19.4943 465.824 19.885 465.32 20.16C463.376 19.0288 461.095 18.6214 458.88 19.01Z" fill="white"/>
<g opacity="0.1">
<path opacity="0.1" d="M519.16 65.66L517.86 59.43C517.6 59.9752 517.299 60.5001 516.96 61C517.002 62.6624 517.412 64.2948 518.16 65.78C518.49 65.716 518.824 65.6759 519.16 65.66Z" fill="black"/>
<path opacity="0.1" d="M513.6 68.3C513.746 68.1796 513.88 68.0456 514 67.9C514.432 67.411 514.947 67.0015 515.52 66.69C515.723 66.5695 515.933 66.4626 516.15 66.37C516.79 66.0927 517.462 65.8945 518.15 65.78C518.48 65.716 518.814 65.6759 519.15 65.66L517.85 59.43C517.59 59.9752 517.289 60.5001 516.95 61C516.49 61.7 515.9 62.38 515.35 62.39C515.187 62.3808 515.032 62.3174 514.91 62.21C514.788 62.1231 514.683 62.0146 514.6 61.89C514.51 61.73 514.42 61.59 514.34 61.46C513.34 60.02 512.7 60.93 512.7 60.93C510.13 61.86 510.96 67.57 510.96 67.57C510.96 67.57 511.99 69.67 513.6 68.3Z" fill="black"/>
<path opacity="0.1" d="M515.52 66.69C515.723 66.5695 515.933 66.4626 516.15 66.37C515.89 65.28 515.57 63.51 515.36 62.37C515.197 62.3608 515.042 62.2974 514.92 62.19L515.52 66.69Z" fill="black"/>
<path opacity="0.1" d="M513.6 68.3C513.156 67.4845 512.871 66.592 512.76 65.67C512.733 64.0996 513.31 62.5786 514.37 61.42C513.37 59.98 512.73 60.89 512.73 60.89C510.16 61.82 510.99 67.53 510.99 67.53C510.99 67.53 511.99 69.67 513.6 68.3Z" fill="black"/>
<path opacity="0.1" d="M513.6 68.3C513.156 67.4845 512.871 66.592 512.76 65.67C512.733 64.0996 513.31 62.5786 514.37 61.42C513.37 59.98 512.73 60.89 512.73 60.89C510.16 61.82 510.99 67.53 510.99 67.53C510.99 67.53 511.99 69.67 513.6 68.3Z" fill="black"/>
</g>
<path d="M512.78 67.06C512.928 66.9422 513.062 66.808 513.18 66.66C513.613 66.1746 514.127 65.7685 514.7 65.46C514.903 65.3395 515.113 65.2326 515.33 65.14C515.97 64.8627 516.642 64.6645 517.33 64.55C517.66 64.4861 517.994 64.4459 518.33 64.43L517.03 58.2C516.768 58.744 516.467 59.2687 516.13 59.77C515.67 60.47 515.13 61.15 514.53 61.15C514.367 61.1495 514.211 61.0889 514.09 60.98C513.974 60.8772 513.876 60.7555 513.8 60.62C513.71 60.46 513.62 60.32 513.54 60.19C512.54 58.75 511.9 59.65 511.9 59.65C509.33 60.59 510.16 66.3 510.16 66.3C510.16 66.3 511.17 68.44 512.78 67.06Z" fill="#6C63FF"/>
<path d="M514.7 65.46C514.903 65.3395 515.113 65.2326 515.33 65.14C515.07 64.05 514.75 62.28 514.54 61.14C514.377 61.1395 514.221 61.0789 514.1 60.97L514.7 65.46Z" fill="#444053"/>
<path d="M512.78 67.06C512.334 66.2487 512.049 65.3592 511.94 64.44C511.927 62.8627 512.521 61.3409 513.6 60.19C512.6 58.75 511.96 59.65 511.96 59.65C509.39 60.59 510.22 66.3 510.22 66.3C510.22 66.3 511.17 68.44 512.78 67.06Z" fill="#6C63FF"/>
<path opacity="0.1" d="M512.78 67.06C512.334 66.2487 512.049 65.3592 511.94 64.44C511.927 62.8627 512.521 61.3409 513.6 60.19C512.6 58.75 511.96 59.65 511.96 59.65C509.39 60.59 510.22 66.3 510.22 66.3C510.22 66.3 511.17 68.44 512.78 67.06Z" fill="black"/>
<g opacity="0.1">
<path opacity="0.1" d="M507.6 48.89C508.997 49.7896 510.574 50.3732 512.22 50.6C512.355 50.291 512.509 49.9905 512.68 49.7L506.8 47.26C507.107 47.7824 507.375 48.3273 507.6 48.89Z" fill="black"/>
<path opacity="0.1" d="M509.6 57.52C509.6 57.52 511.93 57.91 511.71 55.8C511.69 55.6105 511.653 55.4231 511.6 55.24C511.44 54.6099 511.393 53.9566 511.46 53.31C511.478 53.0747 511.511 52.8409 511.56 52.61C511.769 51.5937 512.14 50.6178 512.66 49.72L506.78 47.28C507.093 47.7953 507.367 48.3335 507.6 48.89C507.92 49.67 508.14 50.54 507.84 50.99C507.743 51.1252 507.601 51.2211 507.44 51.26C507.292 51.2922 507.138 51.2922 506.99 51.26H506.48C504.72 51.26 505.12 52.26 505.12 52.26C504.39 54.99 509.6 57.52 509.6 57.52Z" fill="black"/>
<path opacity="0.1" d="M507.4 51.28L511.4 53.28C511.418 53.0447 511.451 52.8109 511.5 52.58C510.44 52.17 508.8 51.44 507.76 50.98C507.679 51.1189 507.551 51.2251 507.4 51.28Z" fill="black"/>
<path opacity="0.1" d="M509.6 57.52C509.6 57.52 511.93 57.91 511.71 55.8C510.788 55.7122 509.892 55.4474 509.07 55.02C507.756 54.1556 506.822 52.821 506.46 51.29C504.7 51.29 505.1 52.29 505.1 52.29C504.39 54.99 509.6 57.52 509.6 57.52Z" fill="black"/>
<path opacity="0.1" d="M509.6 57.52C509.6 57.52 511.93 57.91 511.71 55.8C510.788 55.7122 509.892 55.4474 509.07 55.02C507.756 54.1556 506.822 52.821 506.46 51.29C504.7 51.29 505.1 52.29 505.1 52.29C504.39 54.99 509.6 57.52 509.6 57.52Z" fill="black"/>
</g>
<path d="M509.17 56.89C509.17 56.89 511.5 57.28 511.28 55.18C511.261 54.9903 511.224 54.8029 511.17 54.62C511.01 53.9865 510.963 53.3299 511.03 52.68C511.048 52.448 511.081 52.2175 511.13 51.99C511.256 51.2986 511.471 50.6264 511.77 49.99C511.905 49.681 512.059 49.3805 512.23 49.09L506.35 46.64C506.657 47.1624 506.925 47.7073 507.15 48.27C507.47 49.06 507.69 49.92 507.39 50.38C507.29 50.5096 507.149 50.6013 506.99 50.64C506.841 50.6677 506.689 50.6677 506.54 50.64H506.03C504.27 50.64 504.67 51.64 504.67 51.64C503.98 54.37 509.17 56.89 509.17 56.89Z" fill="#6C63FF"/>
<path d="M506.99 50.66L510.99 52.66C511.008 52.428 511.041 52.1975 511.09 51.97C510.03 51.56 508.39 50.83 507.35 50.37C507.265 50.5036 507.139 50.6055 506.99 50.66Z" fill="#444053"/>
<path d="M509.17 56.89C509.17 56.89 511.5 57.28 511.28 55.18C510.358 55.0833 509.463 54.8154 508.64 54.39C507.326 53.5294 506.392 52.1981 506.03 50.67C504.27 50.67 504.67 51.67 504.67 51.67C503.98 54.37 509.17 56.89 509.17 56.89Z" fill="#6C63FF"/>
<path opacity="0.1" d="M509.17 56.89C509.17 56.89 511.5 57.28 511.28 55.18C510.358 55.0833 509.463 54.8154 508.64 54.39C507.326 53.5294 506.392 52.1981 506.03 50.67C504.27 50.67 504.67 51.67 504.67 51.67C503.98 54.37 509.17 56.89 509.17 56.89Z" fill="black"/>
<path d="M486.09 84.28C486.355 83.7386 486.659 83.2172 487 82.72C487.48 82.02 488.07 81.35 488.61 81.35C488.693 81.3488 488.776 81.3641 488.853 81.395C488.93 81.4259 489.001 81.4718 489.06 81.53C489.173 81.6296 489.268 81.748 489.34 81.88C489.43 82.05 489.52 82.19 489.6 82.32C490.6 83.78 491.24 82.87 491.24 82.87C493.82 81.97 493.04 76.24 493.04 76.24C493.04 76.24 492.04 74.09 490.44 75.45C490.294 75.5693 490.156 75.6997 490.03 75.84C489.423 76.488 488.687 77.0022 487.87 77.35C487.228 77.6167 486.556 77.8079 485.87 77.92C485.54 77.983 485.206 78.0198 484.87 78.03L486.09 84.28Z" fill="#2D3436"/>
<path d="M488.6 81.35C488.683 81.3488 488.766 81.3641 488.843 81.395C488.92 81.4259 488.991 81.4718 489.05 81.53L488.49 77.04C488.287 77.1573 488.077 77.2608 487.86 77.35C488.12 78.45 488.42 80.22 488.6 81.35Z" fill="#2D3436"/>
<path d="M489.6 82.32C490.6 83.78 491.24 82.87 491.24 82.87C493.82 81.97 493.04 76.24 493.04 76.24C493.04 76.24 492.04 74.09 490.44 75.45C490.878 76.2652 491.15 77.1591 491.24 78.08C491.264 79.6526 490.676 81.173 489.6 82.32Z" fill="#2D3436"/>
<path opacity="0.1" d="M489.6 82.32C490.6 83.78 491.24 82.87 491.24 82.87C493.82 81.97 493.04 76.24 493.04 76.24C493.04 76.24 492.04 74.09 490.44 75.45C490.878 76.2652 491.15 77.1591 491.24 78.08C491.264 79.6526 490.676 81.173 489.6 82.32Z" fill="#2D3436"/>
<path opacity="0.1" d="M483.96 92.7C485.848 89.7002 486.885 86.2437 486.96 82.7C487.44 82 488.03 81.33 488.57 81.33C488.653 81.3288 488.736 81.3441 488.813 81.375C488.89 81.4059 488.961 81.4518 489.02 81.51C489.133 81.6096 489.228 81.728 489.3 81.86C489.39 82.03 489.48 82.17 489.56 82.3C490.56 83.76 491.2 82.85 491.2 82.85C493.78 81.95 493 76.22 493 76.22C493 76.22 492 74.07 490.4 75.43C490.253 75.5493 490.116 75.6797 489.99 75.82C489.383 76.4679 488.647 76.9822 487.83 77.33C487.188 77.5966 486.516 77.7879 485.83 77.9C485.331 76.9 484.71 75.9662 483.98 75.12C481.519 72.4878 478.469 70.4761 475.08 69.25C476.48 78.12 479.09 87.46 483.96 92.7Z" fill="#2D3436"/>
<path opacity="0.1" d="M497.99 95.77C498.716 95.6557 499.434 95.4953 500.14 95.29C500.788 95.1043 501.426 94.884 502.05 94.63L502.46 94.46C502.99 94.23 503.53 93.98 504.07 93.7C504.61 93.42 504.88 93.28 505.29 93.05C512.9 88.66 520.29 79.83 523.59 70.87C524.527 68.4222 525.129 65.859 525.38 63.25C525.501 61.8682 525.48 60.4777 525.32 59.1C524.854 55.1495 523.588 51.3353 521.6 47.89C521.38 47.52 521.17 47.17 520.94 46.83C515.94 39.11 507.53 34.45 498.59 35.39C500.53 41 503.29 45.78 507.18 48.27C507.5 49.06 507.72 49.92 507.42 50.38C507.32 50.5096 507.179 50.6013 507.02 50.64C506.871 50.6677 506.719 50.6677 506.57 50.64H506.06C504.3 50.64 504.7 51.64 504.7 51.64C504.01 54.29 509.2 56.82 509.2 56.82C509.2 56.82 511.53 57.21 511.31 55.11C511.291 54.9203 511.254 54.7328 511.2 54.55C511.04 53.9165 510.993 53.2599 511.06 52.61C511.078 52.378 511.111 52.1475 511.16 51.92C511.286 51.2286 511.502 50.5564 511.8 49.92C512.909 50.0653 514.031 50.0653 515.14 49.92C516.708 49.7119 518.242 49.2948 519.7 48.68C519.49 49.01 519.3 49.34 519.12 49.68C517.235 52.6812 516.198 56.1369 516.12 59.68C515.66 60.38 515.12 61.06 514.52 61.06C514.357 61.0595 514.201 60.9989 514.08 60.89C513.964 60.7872 513.866 60.6654 513.79 60.53C513.7 60.37 513.61 60.23 513.53 60.1C512.53 58.66 511.89 59.56 511.89 59.56C509.32 60.5 510.15 66.21 510.15 66.21C510.15 66.21 511.15 68.35 512.76 66.97C512.908 66.8522 513.042 66.718 513.16 66.57C513.593 66.0846 514.107 65.6785 514.68 65.37C514.883 65.2495 515.093 65.1426 515.31 65.05C515.95 64.7727 516.622 64.5745 517.31 64.46C517.809 65.4614 518.438 66.3928 519.18 67.23L519.58 67.66L519.44 67.79C516.23 70.6885 513.263 73.8458 510.57 77.23C509.76 78.23 508.98 79.33 508.29 80.41C507.797 81.1633 507.337 81.9133 506.91 82.66C505.049 85.6683 504.033 89.1229 503.97 92.66C503.51 93.36 502.97 94.03 502.37 94.04C502.205 94.0374 502.046 93.9773 501.92 93.87C501.807 93.7666 501.712 93.6449 501.64 93.51C501.54 93.35 501.46 93.21 501.37 93.08C500.37 91.64 499.74 92.54 499.74 92.54C498.6 93.04 498.16 94.4 497.99 95.77Z" fill="#2D3436"/>
<g opacity="0.1">
<path opacity="0.1" d="M509.38 45.75C509.914 45.9593 510.49 46.0382 511.06 45.98C511.92 46.0222 512.76 46.2544 513.52 46.66C513.14 41.54 506.14 40.06 506.14 40.06C507.86 41.5128 509.008 43.5293 509.38 45.75Z" fill="#2D3436"/>
<path opacity="0.1" d="M474.46 64.39C474.59 65.39 474.73 66.48 474.9 67.54C479.45 68.92 483.81 69.36 487.46 68.2C488.27 68.46 489.07 68.84 489.22 69.36C489.283 69.5137 489.283 69.6863 489.22 69.84C489.155 69.9797 489.063 70.1053 488.95 70.21C488.834 70.3278 488.724 70.4512 488.62 70.58C487.5 71.95 488.55 72.3 488.55 72.3C490.14 74.52 495.41 72.14 495.41 72.14C495.41 72.14 497.2 70.6 495.41 69.43C495.253 69.326 495.089 69.2324 494.92 69.15C494.328 68.8696 493.79 68.4871 493.33 68.02C493.17 67.86 493.01 67.69 492.86 67.51C492.422 66.9638 492.046 66.3701 491.74 65.74C492.571 64.9898 493.295 64.1283 493.89 63.18C498.12 56.57 498.04 44.95 494.69 34.89C481.69 36.73 472.67 49.89 474.46 64.39Z" fill="#2D3436"/>
<path opacity="0.1" d="M486.6 93.46C487.992 94.3656 489.566 94.9561 491.21 95.19C491.345 94.8794 491.503 94.5787 491.68 94.29L485.78 91.89C486.086 92.3953 486.36 92.9197 486.6 93.46Z" fill="#2D3436"/>
<path opacity="0.1" d="M488.6 102.08C488.6 102.08 490.94 102.48 490.71 100.37C490.694 100.181 490.661 99.9931 490.61 99.81C490.451 99.1764 490.403 98.5199 490.47 97.87C490.484 97.6382 490.514 97.4076 490.56 97.18C490.695 96.4907 490.909 95.8194 491.2 95.18C491.336 94.8694 491.493 94.5687 491.67 94.28L485.78 91.89C486.082 92.412 486.349 92.9532 486.58 93.51C486.89 94.3 487.11 95.17 486.81 95.62C486.718 95.7552 486.579 95.8515 486.42 95.89C486.268 95.9169 486.112 95.9169 485.96 95.89C485.793 95.8808 485.627 95.8808 485.46 95.89C483.69 95.89 484.09 96.89 484.09 96.89C483.41 99.56 488.6 102.08 488.6 102.08Z" fill="#2D3436"/>
<path opacity="0.1" d="M486.42 95.89L490.42 97.89C490.42 97.65 490.45 97.42 490.51 97.2C489.46 96.79 487.81 96.06 486.77 95.6C486.691 95.7345 486.567 95.8371 486.42 95.89Z" fill="#2D3436"/>
<path opacity="0.1" d="M488.6 102.08C488.6 102.08 490.93 102.47 490.71 100.36C489.788 100.275 488.891 100.01 488.07 99.58C486.753 98.7225 485.818 97.3899 485.46 95.86C483.69 95.86 484.09 96.86 484.09 96.86C483.4 99.56 488.6 102.08 488.6 102.08Z" fill="#2D3436"/>
<path opacity="0.1" d="M488.6 102.08C488.6 102.08 490.93 102.47 490.71 100.36C489.788 100.275 488.891 100.01 488.07 99.58C486.753 98.7225 485.818 97.3899 485.46 95.86C483.69 95.86 484.09 96.86 484.09 96.86C483.4 99.56 488.6 102.08 488.6 102.08Z" fill="#2D3436"/>
<path opacity="0.1" d="M509.38 45.75C509.914 45.9593 510.49 46.0382 511.06 45.98C511.92 46.0222 512.76 46.2544 513.52 46.66C513.14 41.54 506.14 40.06 506.14 40.06C507.86 41.5128 509.008 43.5293 509.38 45.75Z" fill="#2D3436"/>
</g>
<path d="M475.9 65.21C477.71 79.91 482.78 97.65 495.97 96.02C509.16 94.39 525.49 74.02 523.68 59.31C521.87 44.6 509.68 34.03 496.5 35.66C483.32 37.29 474.08 50.52 475.9 65.21Z" fill="#2D3436"/>
<path d="M490.03 102.89C490.03 102.89 492.36 103.29 492.14 101.18C492.119 100.991 492.085 100.804 492.04 100.62C491.872 99.9879 491.821 99.3304 491.89 98.68C491.89 98.45 491.95 98.21 491.99 97.99C492.19 96.9698 492.566 95.992 493.1 95.1L487.22 92.65C487.22 92.65 488.88 95.44 488.22 96.39C488.124 96.5252 487.981 96.6211 487.82 96.66C487.671 96.682 487.519 96.682 487.37 96.66H486.87C485.1 96.66 485.5 97.66 485.5 97.66C484.84 100.38 490.03 102.89 490.03 102.89Z" fill="#2D3436"/>
<path d="M487.85 96.67L491.85 98.67C491.85 98.44 491.91 98.2 491.95 97.98C490.89 97.57 489.25 96.84 488.21 96.38C488.127 96.5152 488 96.6176 487.85 96.67Z" fill="#2D3436"/>
<path d="M490.03 102.89C490.03 102.89 492.36 103.29 492.14 101.18C491.216 101.094 490.319 100.826 489.5 100.39C488.184 99.5336 487.252 98.2 486.9 96.67C485.13 96.67 485.53 97.67 485.53 97.67C484.84 100.38 490.03 102.89 490.03 102.89Z" fill="#2D3436"/>
<path opacity="0.1" d="M490.03 102.89C490.03 102.89 492.36 103.29 492.14 101.18C491.216 101.094 490.319 100.826 489.5 100.39C488.184 99.5336 487.252 98.2 486.9 96.67C485.13 96.67 485.53 97.67 485.53 97.67C484.84 100.38 490.03 102.89 490.03 102.89Z" fill="#2D3436"/>
<path opacity="0.1" d="M507.6 40.89C507.6 40.89 514.6 42.37 514.98 47.49C514.218 47.0836 513.373 46.8546 512.51 46.82C511.942 46.8719 511.37 46.7897 510.84 46.58C510.463 44.3614 509.315 42.3467 507.6 40.89Z" fill="white"/>
<path d="M490.39 97.99C491.002 98.0408 491.596 98.2234 492.131 98.5252C492.666 98.8271 493.129 99.2411 493.489 99.7388C493.849 100.237 494.098 100.806 494.217 101.409C494.336 102.011 494.323 102.633 494.18 103.23C493.3 106.18 489.68 107.11 487.32 109.08C484.96 111.05 483.83 114.2 483.54 117.27C483.29 120.177 483.677 123.104 484.673 125.846C485.67 128.589 487.252 131.081 489.31 133.15C491.43 135.24 493.99 136.84 496.08 138.96C498.48 141.613 500.453 144.622 501.93 147.88C503.265 150.191 504.144 152.737 504.52 155.38C504.87 159.59 502.75 163.62 500.22 167C497.69 170.38 494.66 173.44 492.7 177.18C491.373 179.747 490.579 182.557 490.368 185.439C490.157 188.321 490.531 191.217 491.47 193.95C491.584 194.388 491.832 194.78 492.18 195.07C492.27 195.137 492.374 195.184 492.483 195.207C492.593 195.231 492.707 195.231 492.817 195.207C492.926 195.184 493.03 195.137 493.12 195.07C493.21 195.003 493.285 194.918 493.34 194.82" stroke="#2D3436" stroke-miterlimit="10"/>
<path d="M502.68 97.25C502.987 97.5973 503.164 98.0405 503.18 98.5039C503.197 98.9672 503.052 99.4218 502.77 99.79C502.475 100.15 502.102 100.439 501.679 100.634C501.257 100.83 500.796 100.928 500.33 100.92C499.2 100.92 497.94 100.57 497.01 101.23C496.697 101.499 496.446 101.832 496.273 102.206C496.101 102.58 496.011 102.988 496.01 103.4C496.018 104.223 495.934 105.045 495.76 105.85C495.53 106.507 495.161 107.107 494.68 107.61C494.135 108.245 493.451 108.744 492.68 109.07C491.01 109.72 489.08 109.13 487.37 109.67C485.12 110.38 483.91 112.81 483.23 115.07C482.302 117.766 482.132 120.665 482.74 123.45C483.329 125.233 484.089 126.954 485.01 128.59C485.929 130.231 486.437 132.07 486.49 133.95C486.5 134.891 486.239 135.816 485.739 136.613C485.239 137.411 484.521 138.048 483.67 138.45" stroke="#2D3436" stroke-miterlimit="10"/>
<path d="M499.86 161.8C497.17 165.38 496.15 171.1 491.75 171.97C489.48 172.42 487.23 171.25 485.2 170.13C480.47 167.49 475.6 164.83 470.2 163.96C464.8 163.09 458.84 164.34 455.3 168.45C452.89 171.27 451.9 175.05 449.78 178.09C447.017 181.772 443.056 184.375 438.58 185.45C434.136 186.511 429.559 186.902 425 186.61C423.31 186.56 421.47 186.43 420.21 185.31C419.387 184.405 418.713 183.375 418.21 182.26C416.04 178.62 411.75 176.62 407.52 176.35C403.29 176.08 399.11 177.35 395.2 178.96C393.2 179.78 391.2 180.72 389.06 180.51C386.06 180.21 383.85 177.79 382 175.46C377.206 169.372 373.135 162.748 369.87 155.72" stroke="#444053" stroke-miterlimit="10"/>
<path d="M405.12 492.39L415.12 489.26C417.92 487.16 417.12 484.63 415.85 482.74C415.403 482.133 414.831 481.631 414.171 481.267C413.512 480.902 412.781 480.685 412.03 480.63C411.364 480.519 410.73 480.267 410.17 479.89C409.558 479.521 409.043 479.01 408.67 478.4C407.985 477.235 407.639 475.901 407.67 474.55C407.67 474.55 396.97 470.97 393.89 474.02C393.343 474.574 392.878 475.204 392.51 475.89C391.448 478.044 390.884 480.409 390.86 482.81C390.86 482.81 390.18 486.22 389.14 490.12C388.1 494.02 405.12 492.39 405.12 492.39Z" fill="#2D293D"/>
<path d="M357.09 485.68L367.09 482.55C369.89 480.45 369.09 477.92 367.82 476.04C367.374 475.43 366.8 474.926 366.139 474.561C365.477 474.197 364.744 473.981 363.99 473.93C363.605 473.869 363.231 473.751 362.88 473.58C362.623 473.468 362.375 473.334 362.14 473.18C359.43 471.56 359.6 467.89 359.6 467.89C359.6 467.89 348.91 464.31 345.83 467.36C345.417 467.775 345.051 468.234 344.74 468.73C343.487 471.004 342.82 473.554 342.8 476.15C342.8 476.15 342.11 479.57 341.07 483.46C340.03 487.35 357.09 485.68 357.09 485.68Z" fill="#2D293D"/>
<path opacity="0.1" d="M393.89 474.02C393.343 474.574 392.878 475.204 392.51 475.89L408.65 478.39C407.965 477.225 407.619 475.891 407.65 474.54C407.65 474.54 396.97 470.97 393.89 474.02Z" fill="black"/>
<path opacity="0.1" d="M344.78 468.68L344.66 471.68C347.02 475.94 359.25 475.5 362.87 473.55C362.613 473.438 362.365 473.304 362.13 473.15C359.43 471.56 359.6 467.89 359.6 467.89C359.6 467.89 348.91 464.31 345.83 467.36C345.434 467.761 345.082 468.204 344.78 468.68Z" fill="black"/>
<path d="M343.35 455.52C344.06 456.87 344.652 458.279 345.12 459.73L344.7 470.61C347.28 475.26 361.7 474.3 363.7 471.89C365.7 469.48 368.04 463.09 365.88 461.89C363.72 460.69 362.14 455.12 362.14 455.12C362.14 455.12 364.46 455.76 368.35 451.5C372.24 447.24 371.51 437.41 370.91 435.04C370.31 432.67 371.31 424.85 371.31 424.85C371.31 424.85 371.38 419.33 372.55 417.59C373.72 415.85 376.46 405.73 376.46 405.73C376.46 405.73 376.59 402.29 378.59 400.57C380.59 398.85 382.09 391.88 382.09 391.88C383.292 390.17 383.861 388.094 383.7 386.01C383.42 382.55 386.32 378.94 386.32 378.94L391.57 364.24L396.41 353.24L398.6 359.89C398.6 359.89 398.7 375.07 398.03 378.22C397.36 381.37 396.21 389.74 396.21 389.74C396.21 389.74 398.75 395.35 397.33 399.99C395.91 404.63 395.94 414.69 395.94 414.69C395.94 414.69 393.94 435.45 394.94 437.14C395.94 438.83 395.68 442.96 395.68 442.96C395.68 442.96 389.56 454.87 391.29 456.59C393.02 458.31 392.29 462.84 392.29 462.84C392.29 462.84 388.44 462.69 390.03 464.41C391.62 466.13 392.6 474.8 392.6 474.8L409.18 477.37C410.772 475.237 412.114 472.929 413.18 470.49C415.58 465.49 412.95 465.92 410.75 465.29C408.55 464.66 410.01 463.29 412.69 461.78C415.37 460.27 414 456.45 414 456.45C414 456.45 410.26 449.54 411.66 449.04C413.06 448.54 413.57 439.04 413.57 439.04C413.57 439.04 416.75 427.85 416.18 424.79C415.61 421.73 418.78 414.54 418.78 414.54L420.08 405.9C423.218 401.094 424.518 395.317 423.74 389.63L424.26 376.27C424.26 376.27 429.11 350.52 430.17 337.45C430.84 329.09 431.17 317.64 431.34 310.5C431.43 306.5 431.46 303.84 431.46 303.84L372.19 295.35C371.988 298.321 371.512 301.266 370.77 304.15C370.04 307.4 368.92 311.59 367.23 316.82C362.37 331.82 364.56 343.21 364.56 343.21L364.37 362.37C364.37 362.37 358.64 374.98 359.57 379.43C360.131 382.059 360.4 384.742 360.37 387.43C360.37 387.43 347.58 414.94 348.51 423.11C349.44 431.28 343.85 443.9 343.85 443.9C343.85 443.9 342.07 452.99 343.35 455.52Z" fill="#3F3D56"/>
<path opacity="0.05" d="M380.14 385.07L362.14 381.96C362.14 381.96 371.98 392.82 380.14 385.07Z" fill="black"/>
<path opacity="0.1" d="M365.42 364.36C365.42 364.36 364.55 370.74 368.42 373.3C368.38 373.3 361.4 371.89 365.42 364.36Z" fill="black"/>
<path opacity="0.1" d="M367.31 344.01C367.31 344.01 381.98 357.06 387.52 356.24C393.06 355.42 367.31 344.01 367.31 344.01Z" fill="black"/>
<path opacity="0.1" d="M402.37 391.78C402.37 391.78 413.77 394.84 413.93 399.47C414.09 404.1 402.37 391.78 402.37 391.78Z" fill="black"/>
<path opacity="0.05" d="M397.6 449.13C397.6 449.13 413.73 452.78 409.04 454.67C405.034 456.075 400.92 457.151 396.74 457.89C396.74 457.89 391.49 458 397.6 449.13Z" fill="black"/>
<g opacity="0.05">
<path opacity="0.05" d="M412.23 458.08C412.648 457.84 413.006 457.508 413.278 457.11C413.55 456.711 413.728 456.257 413.8 455.78L413.96 456.08C413.96 456.08 415.33 459.85 412.65 461.4L411.78 461.93C411.3 461.82 410.78 461.73 410.29 461.59C408.09 460.95 409.6 459.63 412.23 458.08Z" fill="black"/>
<path opacity="0.05" d="M391.33 456.17C390.9 455.74 390.96 454.68 391.28 453.33C391.893 454.569 392.16 455.952 392.05 457.33C391.895 456.897 391.649 456.501 391.33 456.17Z" fill="black"/>
<path opacity="0.05" d="M396.47 387.74C397.008 389.389 397.311 391.106 397.37 392.84C397.103 391.632 396.728 390.451 396.25 389.31C396.25 389.31 396.33 388.7 396.47 387.74Z" fill="black"/>
<path opacity="0.05" d="M359.53 379.07C359.441 378.572 359.411 378.065 359.44 377.56C359.6 378.56 359.71 379.56 359.78 380.4C359.71 379.96 359.6 379.52 359.53 379.07Z" fill="black"/>
<path opacity="0.05" d="M394.98 436.72C394.701 435.719 394.599 434.676 394.68 433.64C395.145 434.886 395.366 436.21 395.33 437.54C395.245 437.254 395.128 436.979 394.98 436.72Z" fill="black"/>
<path opacity="0.05" d="M390.6 462.57C391.356 465.366 391.885 468.219 392.18 471.1L408.76 473.67C410.352 471.537 411.694 469.229 412.76 466.79C412.97 466.35 413.14 465.95 413.28 465.59C414.28 466.09 414.61 467.14 413.18 470.11C412.115 472.552 410.773 474.864 409.18 477L392.6 474.43C392.6 474.43 391.69 465.7 390.1 463.98C389.28 463.14 389.82 462.75 390.6 462.57Z" fill="black"/>
<path opacity="0.05" d="M413.52 438.68C413.52 438.68 413.02 448.18 411.62 448.68C410.99 447.08 410.62 445.57 411.21 445.35C412.61 444.85 413.11 435.35 413.11 435.35C413.11 435.35 416.3 424.16 415.73 421.1C415.16 418.04 418.33 410.86 418.33 410.86L419.63 402.22C422.768 397.41 424.067 391.63 423.29 385.94L423.8 372.58C423.8 372.58 428.66 346.83 429.71 333.77C430.39 325.4 430.71 313.96 430.89 306.82C430.89 305.53 430.94 304.38 430.95 303.41L431.43 303.48C431.43 303.48 431.43 306.14 431.31 310.14C431.15 317.28 430.81 328.73 430.14 337.09C429.08 350.16 424.23 375.91 424.23 375.91L423.71 389.27C424.488 394.957 423.188 400.734 420.05 405.54L418.75 414.18C418.75 414.18 415.58 421.37 416.15 424.43C416.72 427.49 413.52 438.68 413.52 438.68Z" fill="black"/>
<path opacity="0.05" d="M363.28 468.2C364.707 466.289 365.694 464.087 366.17 461.75C367.81 463.35 365.62 469.24 363.7 471.52C361.78 473.8 347.29 474.89 344.7 470.24L344.8 467.62C348.4 471.45 361.36 470.47 363.28 468.2Z" fill="black"/>
<path opacity="0.05" d="M342.94 451.82C343.644 453.173 344.236 454.581 344.71 456.03L344.63 457.96C344.35 457.25 343.94 456.29 343.36 455.15C342.962 454.053 342.802 452.884 342.89 451.72L342.94 451.82Z" fill="black"/>
<path opacity="0.05" d="M362.95 454.77C362.465 453.689 362.054 452.577 361.72 451.44C361.72 451.44 364.04 452.08 367.92 447.82C370.76 444.72 371.14 438.67 370.92 434.69C371.52 437.06 372.25 446.88 368.36 451.15C365.8 453.94 363.94 454.62 362.95 454.77Z" fill="black"/>
<path opacity="0.05" d="M371.31 424.5C370.96 427.203 370.763 429.924 370.72 432.65C370.64 432.12 370.56 431.65 370.48 431.36C369.88 429 370.88 421.17 370.88 421.17C370.88 421.17 370.96 415.66 372.13 413.91C373.3 412.16 376.03 402.06 376.03 402.06C376.03 402.06 376.16 398.61 378.16 396.9C380.16 395.19 381.67 388.2 381.67 388.2C382.863 386.486 383.428 384.413 383.27 382.33C382.99 378.87 385.89 375.26 385.89 375.26L391.15 360.56L395.98 349.56L398.21 356.13C398.21 356.13 398.21 356.95 398.21 358.23L396.41 352.89L391.6 363.89L386.35 378.59C386.35 378.59 383.45 382.2 383.73 385.66C383.891 387.744 383.322 389.82 382.12 391.53C382.12 391.53 380.61 398.53 378.62 400.22C376.63 401.91 376.49 405.38 376.49 405.38C376.49 405.38 373.75 415.49 372.58 417.23C371.41 418.97 371.31 424.5 371.31 424.5Z" fill="black"/>
</g>
<path d="M369.49 170.62L370.33 175.69L370.19 177.93L370.08 179.58L375.8 180.39L376.49 179.22C377.77 177.11 380.4 172.82 381.23 172.22C382.33 171.36 384.76 157.45 382.45 158.22C381.04 158.703 379.86 159.694 379.14 161C379.14 161 367.79 161.8 369.49 170.62Z" fill="#FFCDD3"/>
<path opacity="0.1" d="M370.08 179.58L375.8 180.39L376.49 179.22C375.753 178.306 374.722 177.678 373.572 177.443C372.422 177.207 371.226 177.38 370.19 177.93L370.08 179.58Z" fill="black"/>
<path d="M368.52 182.24L376.03 184.24L376.24 183.12L376.78 180.12C376.387 179.554 375.886 179.071 375.306 178.699C374.726 178.327 374.077 178.074 373.399 177.954C372.72 177.834 372.024 177.85 371.352 178C370.679 178.151 370.043 178.433 369.48 178.83L369.05 180.37L368.52 182.24Z" fill="#DCE6F2"/>
<path d="M491.72 175.89L499.65 180.54L500.44 179.04C501.27 177.46 502.51 175.04 502.86 174.21C503.39 172.89 506.86 171.33 506.86 171.33C515.64 163.56 505.86 156.22 505.86 156.22C500.93 145.27 494.42 159.43 494.42 159.43C494.42 159.43 493.31 166.98 493.87 167.52C494.43 168.06 494.36 170.12 494.36 170.12C493.524 171.578 492.812 173.103 492.23 174.68C491.87 175.41 491.72 175.89 491.72 175.89Z" fill="#FFCDD3"/>
<path opacity="0.1" d="M491.72 175.89L499.65 180.54L500.44 179.04C499.33 178.04 495.44 174.6 494.08 174.7C493.442 174.765 492.798 174.765 492.16 174.7C491.87 175.41 491.72 175.89 491.72 175.89Z" fill="black"/>
<path d="M490.8 178.29L499.72 183.12L499.98 181.12L500.16 179.78C500.16 179.78 495.06 175.06 493.5 175.17C492.709 175.252 491.911 175.218 491.13 175.07L490.96 176.71L490.8 178.29Z" fill="#DCE6F2"/>
<path d="M390.25 204.89C390.25 204.89 429.72 210.89 422.4 208.19C417.31 206.31 415.4 202.96 415.09 199.3C415.003 196.164 415.629 193.049 416.92 190.19C417.952 187.733 419.232 185.388 420.74 183.19C420.74 183.19 391.08 165.35 396.56 180.74C397.406 183.069 397.892 185.514 398 187.99C398.088 190.444 397.728 192.894 396.94 195.22C395.641 198.997 393.326 202.343 390.25 204.89Z" fill="#FFCDD3"/>
<path opacity="0.1" d="M396.6 180.7C397.446 183.029 397.932 185.474 398.04 187.95C400.8 190.45 403.94 190.42 407.95 190.57C411.05 190.69 414.44 191.57 416.95 190.18C417.982 187.723 419.262 185.378 420.77 183.18C420.77 183.18 391.08 165.31 396.6 180.7Z" fill="black"/>
<path d="M409.04 191.64C418.097 191.64 425.44 184.297 425.44 175.24C425.44 166.183 418.097 158.84 409.04 158.84C399.983 158.84 392.64 166.183 392.64 175.24C392.64 184.297 399.983 191.64 409.04 191.64Z" fill="#FFCDD3"/>
<path opacity="0.1" d="M390.25 204.89C390.25 204.89 429.72 210.89 422.4 208.19C417.31 206.31 415.4 202.96 415.09 199.3C413.2 197.09 409.29 195.39 406.78 194.47C404.484 193.603 401.976 193.467 399.6 194.08C398.665 194.321 397.769 194.695 396.94 195.19C395.646 198.978 393.331 202.335 390.25 204.89Z" fill="black"/>
<path opacity="0.1" d="M368.52 182.24L376.03 184.24L376.24 183.12C375.472 181.975 374.37 181.094 373.083 180.598C371.796 180.102 370.388 180.016 369.05 180.35L368.52 182.24Z" fill="black"/>
<path opacity="0.1" d="M490.8 178.29L499.72 183.12L499.98 181.12C497.094 179.428 494.086 177.954 490.98 176.71L490.8 178.29Z" fill="black"/>
<path opacity="0.1" d="M370.72 304.16C385.98 307.16 407.72 311.16 411.21 310.25C414.12 309.48 423.31 309.93 431.29 310.51C431.38 306.51 431.41 303.85 431.41 303.85L372.14 295.36C371.938 298.331 371.462 301.276 370.72 304.16Z" fill="black"/>
<path d="M355.6 299.97C355.6 299.97 405.82 310.59 411.31 309.15C416.8 307.71 444.58 310.57 444.58 310.57C456.79 319.45 452.04 306.85 452.04 306.85C452.04 306.85 453.39 300.42 452.04 295.13C451.178 291.251 450.64 287.308 450.43 283.34C450.43 283.34 451.02 275.09 449.58 273.1C448.14 271.11 446.88 257.27 446.88 257.27C446.88 257.27 445.88 247.85 446.08 245.79C446.28 243.73 445.97 237.92 445.97 237.92L444.55 228.21C454.93 227.21 487.08 209.15 487.08 209.15C488.85 202.74 501.14 188.03 501.14 188.03C501.354 186.763 501.723 185.527 502.24 184.35C503.16 182.18 490.93 177.35 490.93 177.35C490.93 177.35 481.26 188.29 479.22 191.24C477.18 194.19 470.34 199.59 470.34 199.59C469.332 199.456 468.306 199.552 467.34 199.87H467.18C464.927 200.661 462.801 201.776 460.87 203.18C457.769 202.988 454.715 204.006 452.35 206.02C452.35 206.02 446.73 205.02 445.73 205.9C444.73 206.78 439.95 205.68 439.95 205.68C439.95 205.68 435.52 195.3 432.24 198.14C428.96 200.98 415.51 200.33 415.51 200.33C413.82 197.88 409.51 196 406.83 195.02C404.535 194.15 402.027 194.01 399.65 194.62C398.62 194.873 397.643 195.303 396.76 195.89L388.3 203.56C388.3 203.56 386.07 200.44 386.37 199.76C386.67 199.08 383.67 198.41 383.67 198.41C383.67 198.41 379.67 197.02 378.22 196.55C376.77 196.08 375.27 197.66 375.14 197.8C375.825 195.877 376.137 193.84 376.06 191.8C375.75 189.17 377.9 186.91 377.9 186.91C373.54 174.91 362.27 184.37 362.27 184.37C362.27 184.37 360.78 190.8 361.79 193.32C362.8 195.84 360.39 200.99 360.61 202.38C360.83 203.77 359.92 206.08 359.82 208.7C359.72 211.32 360.91 216.33 361.65 218.56C362.39 220.79 368.81 226.01 368.81 226.01C368.81 226.01 368.92 233.88 371.64 238.54C374.36 243.2 371.97 258.69 371.97 258.69C371.97 258.69 368.75 270.69 365.15 274.43C361.55 278.17 355.6 299.97 355.6 299.97Z" fill="#3F3D56"/>
<path opacity="0.1" d="M432.73 212.17C432.73 212.17 434.42 207.68 435.81 207.32C437.203 206.867 438.563 206.319 439.88 205.68L439.06 203.95C439.06 203.95 433.83 205.17 432.94 206.66C432.05 208.15 432.73 212.17 432.73 212.17Z" fill="black"/>
<path opacity="0.1" d="M460.8 203.18C461.03 204.56 473.24 206.28 473.24 206.28L467.24 199.82H467.09C464.841 200.628 462.722 201.76 460.8 203.18Z" fill="black"/>
<path opacity="0.1" d="M431.22 249.49C431.36 249.34 398.8 287.35 375.56 263.77C375.6 263.77 413.45 270.4 431.22 249.49Z" fill="black"/>
<path opacity="0.1" d="M439.69 229.83C437.62 234.142 435.042 238.191 432.01 241.89C428.701 245.99 424.746 249.523 420.3 252.35C420.3 252.35 439.28 232.37 439.69 229.83Z" fill="black"/>
<path opacity="0.1" d="M446.6 208.47C446.6 208.47 442.98 221.73 434.82 225.97L446.6 208.47Z" fill="black"/>
<path opacity="0.1" d="M451.3 210.01C451.39 209.76 453.65 220.7 440.36 226.19C440.36 226.19 445.98 224.52 451.3 210.01Z" fill="black"/>
<path opacity="0.1" d="M370.51 197.89C370.72 197.89 363.9 201.89 362.02 203.77C362.02 203.79 366.6 197.48 370.51 197.89Z" fill="black"/>
<path d="M412.9 190.28C412.741 191.148 412.254 191.922 411.54 192.44C411.051 192.661 410.516 192.761 409.98 192.73C404.98 192.85 399.76 192.87 395.21 190.73C394.362 190.391 393.61 189.848 393.02 189.15C392.374 188.023 391.975 186.772 391.85 185.48C391.29 183 389.99 180.77 389.09 178.4C387.577 174.412 387.183 170.086 387.95 165.89C388.127 164.592 388.603 163.353 389.34 162.27C390.74 160.43 393.18 159.76 394.99 158.32C396.8 156.88 397.99 154.62 400.11 153.57C402 152.57 404.25 152.82 406.31 153.26C410.375 154.109 414.238 155.732 417.69 158.04C418.85 158.81 420.12 159.7 421.5 159.5C422.68 159.167 423.709 158.436 424.41 157.43C425.324 159.709 425.668 162.178 425.41 164.62C425.35 164.978 425.35 165.343 425.41 165.7C425.568 166.132 425.813 166.527 426.13 166.86C427.31 168.34 427.99 170.64 426.72 172.03C426.17 172.65 425.34 172.96 424.8 173.58C423.8 174.69 424.07 176.36 424.04 177.84C424.074 178.354 423.925 178.864 423.62 179.28C423.347 179.509 423.02 179.665 422.671 179.735C422.322 179.805 421.96 179.786 421.62 179.68C420.929 179.446 420.199 179.348 419.47 179.39C418.692 179.62 418.013 180.102 417.54 180.76C415.03 183.59 414.01 186.78 412.9 190.28Z" fill="#3F3D56"/>
<g opacity="0.1">
<path opacity="0.1" d="M392.51 187.89C393.102 188.59 393.857 189.133 394.71 189.47C399.26 191.57 404.47 191.55 409.48 191.47C410.015 191.491 410.548 191.392 411.04 191.18C411.757 190.659 412.244 189.882 412.4 189.01C413.51 185.52 414.53 182.33 416.95 179.48C417.421 178.819 418.101 178.337 418.88 178.11C419.609 178.068 420.339 178.166 421.03 178.4C421.371 178.506 421.733 178.525 422.083 178.453C422.433 178.381 422.759 178.222 423.03 177.99C423.335 177.574 423.484 177.064 423.45 176.55C423.45 175.08 423.24 173.41 424.2 172.3C424.74 171.67 425.57 171.36 426.13 170.75C426.492 170.296 426.725 169.752 426.802 169.176C426.88 168.6 426.799 168.014 426.57 167.48C427.39 168.9 427.71 170.7 426.64 171.87C426.08 172.48 425.25 172.8 424.71 173.42C423.71 174.53 423.99 176.2 423.96 177.68C423.994 178.194 423.845 178.704 423.54 179.12C423.267 179.349 422.94 179.505 422.591 179.575C422.242 179.645 421.88 179.626 421.54 179.52C420.848 179.287 420.119 179.189 419.39 179.23C418.611 179.457 417.931 179.939 417.46 180.6C415.04 183.45 414.01 186.6 412.91 190.14C412.751 191.008 412.264 191.782 411.55 192.3C411.061 192.521 410.526 192.621 409.99 192.59C404.99 192.71 399.77 192.73 395.22 190.59C394.367 190.253 393.612 189.71 393.02 189.01C392.725 188.601 392.502 188.144 392.36 187.66L392.51 187.89Z" fill="black"/>
<path opacity="0.1" d="M425.33 165.24C425.116 164.992 424.956 164.703 424.86 164.39C424.796 164.036 424.796 163.674 424.86 163.32C425.081 161.304 424.897 159.264 424.32 157.32L424.41 157.22C425.303 159.505 425.629 161.972 425.36 164.41C425.328 164.685 425.318 164.963 425.33 165.24Z" fill="black"/>
</g>
<path opacity="0.1" d="M415.45 200.33C415.45 200.33 394.86 202.25 393.14 199.1L415.45 200.33Z" fill="black"/>
<path opacity="0.1" d="M375.96 190.32C375.96 190.32 364.58 189.9 361.96 194.07L375.96 190.32Z" fill="black"/>
<defs>
<linearGradient id="paint0_linear" x1="865.6" y1="460.69" x2="712.94" y2="460.69" gradientUnits="userSpaceOnUse">
<stop stop-color="#808080" stop-opacity="0.25"/>
<stop offset="0.54" stop-color="#808080" stop-opacity="0.12"/>
<stop offset="1" stop-color="#808080" stop-opacity="0.1"/>
</linearGradient>
</defs>
</svg>
